<?xml version="1.0" encoding="utf-8"?>
<svg xmlns="http://www.w3.org/2000/svg" xmlns:svg="http://www.w3.org/2000/svg" width="357" height="97" clip-rule="evenodd">
 <defs>
  <style type="text/css">
   
    .fil11 {fill:#FEFEFE}
    .fil1 {fill:#BDBFC1}
    .fil5 {fill:#BDBFC1}
    .fil7 {fill:#373435}
    .fil4 {fill:#373435}
    .fil2 {fill:#718FC8}
    .fil0 {fill:#FEFEFE}
    .fil10 {fill:#FEFEFE}
    .fil8 {fill:white}
    .fil6 {fill:#373435;fill-rule:nonzero}
    .fil3 {fill:#FEFEFE;fill-rule:nonzero}
    .fil9 {fill:white;fill-rule:nonzero}
   
  </style>
  <pattern height="100" id="gridpattern" patternUnits="userSpaceOnUse" width="100" x="0" y="0">
   <image height="100" id="svg_91" width="100" x="0" y="0"/>
  </pattern>
  <pattern height="100" id="gridpattern" patternUnits="userSpaceOnUse" width="100" x="0" y="0">
   <image height="100" id="svg_1" width="100" x="0" y="0"/>
  </pattern>
  <pattern height="100" id="gridpattern" patternUnits="userSpaceOnUse" width="100" x="0" y="0">
   <image height="100" width="100" x="0" y="0"/>
  </pattern>
 </defs>
 <g class="layer">
  <title>Layer 1</title>
  <metadata id="CorelCorpID_0Corel-Layer"/>
  <g id="svg_92">
   <path class="fil0" d="m56.910455,11.913786l1.777161,0c1.198548,0 1.859819,1.027049 2.190458,2.218434l0.950574,3.574131c1.901148,0.328655 3.719638,0.821645 5.455462,1.437872l2.645077,-2.629249c0.867916,-0.862722 1.942477,-1.396788 3.017045,-0.780562l6.654017,3.820634c1.033232,0.575143 1.11589,1.807604 0.785258,2.998988l-0.950574,3.615215c1.405193,1.191377 2.727735,2.547082 3.967612,3.94387l3.63698,-0.985966c1.157219,-0.328655 2.397096,-0.246495 2.975709,0.780562l3.843625,6.655287c0.619942,1.027049 0.082658,2.136266 -0.785258,2.957905l-2.645077,2.629249c0.619942,1.766527 1.115897,3.574131 1.446529,5.422826l3.63698,0.944889c1.157219,0.328655 2.190451,0.985966 2.190451,2.177343l0,7.682337c0,1.191384 -1.033232,1.848695 -2.190451,2.17735l-3.63698,0.944889c-0.330632,1.848688 -0.826587,3.697375 -1.446529,5.422826l2.645077,2.629249c0.867916,0.821638 1.4052,1.930855 0.785258,2.957905l-3.843625,6.655287c-0.578613,1.027049 -1.81849,1.109217 -2.975709,0.780554l-3.678309,-0.985966c-1.198548,1.437872 -2.52109,2.752493 -3.967612,3.943878l0.991903,3.615215c0.330632,1.191377 0.247974,2.423838 -0.785258,2.998988l-6.654017,3.820626c-1.074568,0.616234 -2.149129,0.041084 -3.017045,-0.780562l-2.645077,-2.629249c-1.777154,0.616234 -3.595643,1.109217 -5.455462,1.437872l-0.950574,3.574139c-0.28931,1.191377 -0.99191,2.218427 -2.190458,2.218427l-7.687249,0c-1.239877,0 -1.901148,-1.027049 -2.231787,-2.218427l-0.950574,-3.574139c-1.859819,-0.328655 -3.678309,-0.821638 -5.455462,-1.478949l-2.645077,2.670326c-0.826587,0.862729 -1.942477,1.396788 -2.975716,0.780562l-6.654017,-3.820626c-1.074561,-0.57515 -1.157219,-1.807611 -0.826587,-2.998988l0.991903,-3.615215c-1.446522,-1.191384 -2.769064,-2.547089 -3.967612,-3.943878l-3.63698,0.985966c-1.157219,0.328662 -2.397096,0.246495 -3.017038,-0.780554l-3.843625,-6.655287c-0.619942,-1.027049 -0.041329,-2.136266 0.785258,-2.957905l2.686406,-2.629249c-0.661271,-1.766527 -1.157226,-3.574139 -1.487858,-5.46391l-3.595651,-0.903806c-1.198548,-0.328655 -2.190451,-0.985973 -2.190451,-2.17735l0,-1.766527c2.107793,1.150301 4.504896,1.766527 7.067307,1.766527l15.457164,0c1.81849,9.489948 10.249668,16.720385 20.33402,16.720385l0,0c11.365558,0 20.664652,-9.243453 20.664652,-20.541011l0,-0.041084c0,-9.982931 -7.23263,-18.363661 -16.779698,-20.171272l0,-15.405757c0,-2.506005 -0.661271,-4.929843 -1.81849,-7.025026l0,0z" id="svg_93"/>
   <path class="fil1" d="m68.193355,54.556925l0,-0.041084c0,-5.956893 -4.008941,-11.00998 -9.46441,-12.69434l0,1.766527c0,8.134236 -6.695346,14.789523 -14.91988,14.789523l-1.777161,0c1.694503,5.46391 6.819341,9.448871 12.812087,9.448871l0,0c7.356617,0 13.349364,-5.997977 13.349364,-13.269498l0,0z" id="svg_94"/>
   <path class="fil2" d="m52.36423,43.588028l0,-24.649217c0,-4.642265 -3.843625,-8.462898 -8.555165,-8.462898l-9.257765,0l0,11.872709c0,6.655287 -5.414141,12.03703 -12.109487,12.03703l-11.944171,0l0,9.202376c0,4.642265 3.843625,8.462898 8.555165,8.462898l24.756258,0c4.711541,0 8.555165,-3.820634 8.555165,-8.462898l0,0z" id="svg_95"/>
   <path class="fil0" d="m28.186585,22.348623l0,-16.597141c0,-3.163316 -2.562412,-5.751481 -5.744772,-5.751481l-16.697041,0c-3.182354,0 -5.744772,2.588166 -5.744772,5.751481l0,16.597141c0,3.163316 2.562419,5.710398 5.744772,5.710398l16.697041,0c3.182361,0 5.744772,-2.547082 5.744772,-5.710398z" id="svg_96"/>
   <path class="fil3" d="m138.411852,40.506873c10.745623,14.21438 16.118435,22.143211 16.945014,23.170261c0.743929,0.985973 1.487858,1.232461 3.265019,1.232461c2.562419,0 2.851722,-0.821638 2.851722,-3.450887l0,-22.636194c0,-1.561116 0,-2.464922 1.033232,-3.081156c0.826587,-0.451899 1.735832,-0.492983 1.735832,-1.643276c0,-1.068133 -0.619942,-1.643284 -1.735832,-1.643284l-6.447372,0c-1.281206,0 -1.942477,0.534067 -1.942477,1.52004c0,1.314621 0.867916,1.314621 2.066464,1.971932c0.661271,0.369739 0.867916,1.232461 0.867916,2.506005l0,15.200345c-5.331475,-7.969908 -9.8777,-14.091129 -13.51468,-18.486905c-1.446529,-1.766527 -1.983806,-2.711417 -4.174264,-2.711417l-6.901991,0c-1.074561,0 -1.611845,0.451906 -1.611845,1.396788c0,1.396788 0.867916,1.314628 1.983806,1.807611c1.033232,0.451899 1.11589,0.985966 1.11589,2.300594l0,19.719373c0,1.807604 0,2.834653 -0.950574,3.656299c-0.578606,0.492983 -2.397096,0.205411 -2.397096,1.807611c0,0.985966 0.537277,1.396788 1.81849,1.396788l7.315288,0c1.363864,0 1.81849,-0.287579 1.81849,-1.396788c0,-1.232461 -0.909245,-1.191384 -1.942477,-1.6022c-1.157226,-0.49299 -1.198555,-1.191384 -1.198555,-2.834661l0,-18.199334l0,-0.000007zm46.950097,21.403733l0,1.232461c0,0.903806 0.495948,1.396788 1.52918,1.396788l4.918193,0c1.446522,0 2.066464,-0.328655 2.066464,-1.191377c0,-0.616227 -0.495955,-0.903806 -1.322535,-1.355705c-0.909245,-0.492983 -1.198555,-0.739478 -1.198555,-2.629249l0,-13.967892c0,-1.314621 -0.7026,-1.848688 -2.355767,-1.848688c-4.174264,0 -6.984656,1.068133 -6.984656,2.218427c0,0.698394 0.619942,0.944889 1.4052,1.355712c0.289303,0.205404 0.495948,0.903806 0.495948,2.054099l0,9.038041c0,2.136266 -1.239877,3.368727 -3.141025,3.368727c-2.562419,0 -3.141032,-1.355705 -3.141032,-4.519021l0,-11.667298c0,-1.314621 -0.743922,-1.848688 -2.397096,-1.848688c-4.298251,0 -7.191301,1.191377 -7.191301,2.17735c0,1.068126 1.322535,1.314621 1.653174,1.76652c0.330632,0.410823 0.454619,1.150301 0.454619,2.300594l0,7.64126c0,5.217415 2.190458,7.72342 7.480604,7.72342c3.265019,0 5.910096,-1.109217 7.728585,-3.245483l0,0zm22.855103,-8.503975c1.239884,-0.903806 2.314445,-1.807611 3.141032,-2.588173c5.083501,5.217422 7.149972,9.407787 7.149972,10.106182c0,0.657311 -1.611845,0.698394 -1.611845,2.177343c0,0.780562 0.785258,1.437872 2.149122,1.437872l8.389849,0c1.81849,0 2.727735,-0.451899 2.727735,-1.6022c0,-1.068126 -0.578613,-1.232461 -1.281206,-1.643276c-1.239884,-0.739478 -1.322542,-1.150301 -1.570516,-1.643284c-3.471664,-6.326632 -7.025985,-11.00998 -10.538971,-14.132212c4.670212,-4.642272 6.984649,-7.805588 7.976552,-8.586142c1.446529,-1.109217 3.182361,-1.109217 3.182361,-2.670333c0,-1.232461 -0.950574,-1.807611 -2.851729,-1.807611l-5.992746,0c-1.570516,0 -2.355774,0.57515 -2.355774,1.68436c0,0.57515 0.247981,0.985973 0.785258,1.273545c0.537284,0.328655 1.239884,0.410823 1.239884,1.232461c0,0.780562 -3.306348,5.094171 -10.538978,12.160281l0,-10.147258c0,-1.191377 0.041329,-1.930855 0.743929,-2.423838c0.619942,-0.451906 1.570516,-0.657318 1.570516,-2.013022c0,-1.273545 -0.867916,-1.766527 -2.603748,-1.766527l-8.34852,0c-1.487858,0 -2.314445,0.780562 -2.314445,1.725444c0,1.314628 0.7026,1.52004 1.487858,1.889779c1.074561,0.492983 1.322535,0.944882 1.322535,2.588166l0,20.951834c0,1.068126 -0.330632,1.273537 -1.239877,1.807604c-0.826587,0.492983 -1.198548,0.862722 -1.198548,1.725444c0,0.985973 0.7026,1.396796 2.190451,1.396796l8.389849,0c1.694503,0 2.52109,-0.369739 2.52109,-1.52004c0,-1.191377 -0.743929,-1.396788 -1.570516,-1.766527c-0.909245,-0.492983 -0.950574,-1.027049 -0.950574,-2.629249l0,-5.217415l0,0zm32.236862,0.205404l0,-0.575143c0,-4.231449 1.901148,-6.655287 4.33958,-6.655287c1.487851,0 2.438425,0.985966 2.438425,2.588166c0,2.341671 -2.397096,4.272533 -6.778004,4.642265zm0.247974,3.245483c8.885804,-0.657311 13.308042,-2.998988 13.308042,-7.312598c0,-3.450895 -3.430335,-6.162304 -9.092449,-6.162304c-7.315288,0 -11.9855,4.436853 -11.9855,11.092147c0,6.57312 4.298251,10.681325 11.241571,10.681325c6.364714,0 10.456313,-3.409811 10.456313,-5.504994c0,-0.739478 -0.537277,-1.273545 -1.157219,-1.273545c-1.033232,0 -1.570509,0.780562 -2.438425,1.478956c-1.611845,1.232461 -3.389006,1.848688 -5.166167,1.848688c-2.810393,0 -4.876857,-1.807604 -5.166167,-4.847676l0,0zm26.161458,-3.245483l0,-0.575143c0,-4.231449 1.859819,-6.655287 4.339572,-6.655287c1.487858,0 2.397103,0.985966 2.397103,2.588166c0,2.341671 -2.355774,4.272533 -6.736675,4.642265zm0.206645,3.245483c8.927126,-0.657311 13.349364,-2.998988 13.349364,-7.312598c0,-3.450895 -3.430328,-6.162304 -9.092449,-6.162304c-7.315281,0 -11.985493,4.436853 -11.985493,11.092147c0,6.57312 4.298243,10.681325 11.241571,10.681325c6.364714,0 10.456313,-3.409811 10.456313,-5.504994c0,-0.739478 -0.537284,-1.273545 -1.157219,-1.273545c-1.033232,0 -1.570516,0.780562 -2.479761,1.478956c-1.611845,1.232461 -3.347677,1.848688 -5.12483,1.848688c-2.810393,0 -4.876864,-1.807604 -5.207496,-4.847676l0,0zm26.492083,-10.229426l0,-1.273545c0,-1.314621 -0.330632,-1.848688 -1.611838,-1.848688c-1.777161,0 -4.215593,0.57515 -6.034083,1.478956c-0.619935,0.328655 -0.950574,0.698394 -0.950574,1.232461c0,1.027049 0.867916,0.944882 1.529187,1.355705c0.826587,0.492983 0.909245,1.355705 0.909245,2.711409l0,17.99393c0,0.903806 -0.041329,1.478949 -0.454626,1.807611c-0.743922,0.575143 -1.611838,0.739471 -1.611838,1.68436c0,0.739478 0.537277,1.232461 1.322535,1.232461l8.265862,0c1.570516,0 2.107793,-0.246495 2.107793,-1.273545c0,-0.862722 -0.578606,-1.109217 -1.487851,-1.643276c-0.826587,-0.49299 -0.867916,-0.862729 -0.867916,-2.054106l0,-15.159262c0,-4.108205 0.743929,-6.080144 3.265012,-6.080144c2.479761,0 4.174264,2.464922 4.174264,7.025026c0,4.847683 -1.611845,7.600176 -4.174264,7.600176c-0.330632,0 -0.661264,-0.08216 -1.074561,-0.08216c-0.743929,0 -1.446529,0.657311 -1.446529,1.314621c0,1.355705 1.529187,2.25951 4.33958,2.25951c5.910096,0 9.960365,-4.149282 9.960365,-10.640241c0,-6.449876 -3.884954,-10.763492 -9.588397,-10.763492c-2.562419,0 -4.876864,1.068133 -6.571367,3.122232l0,0zm28.806527,6.983942l0,-0.575143c0,-4.231449 1.859819,-6.655287 4.33958,-6.655287c1.446529,0 2.397103,0.985966 2.397103,2.588166c0,2.341671 -2.355774,4.272533 -6.736683,4.642265zm0.206652,3.245483c8.885797,-0.657311 13.349364,-2.998988 13.349364,-7.312598c0,-3.450895 -3.471664,-6.162304 -9.092449,-6.162304c-7.356617,0 -11.9855,4.436853 -11.9855,11.092147c0,6.57312 4.298251,10.681325 11.200242,10.681325c6.364714,0 10.497649,-3.409811 10.497649,-5.504994c0,-0.739478 -0.537284,-1.273545 -1.157219,-1.273545c-1.033239,0 -1.570516,0.780562 -2.479761,1.478956c-1.611845,1.232461 -3.347677,1.848688 -5.166167,1.848688c-2.810393,0 -4.876857,-1.807604 -5.166159,-4.847676l0,0zm19.424775,7.682337l9.216429,0c1.157226,0 1.735832,-0.410823 1.735832,-1.232461c0,-0.944882 -0.661264,-1.109217 -1.859819,-1.6022c-0.537277,-0.205411 -0.743922,-0.698394 -0.743922,-1.520032l0,-6.860698c0,-3.2044 0.702593,-4.847676 1.363864,-4.847676c0.537284,0 1.281206,0.698394 2.479761,0.698394c2.025135,0 3.141025,-1.068133 3.141025,-2.834661c0,-1.848695 -1.281206,-2.998988 -3.34767,-2.998988c-2.273116,0 -4.008948,1.355705 -5.372812,4.067121c-0.041329,-3.040072 -0.537284,-4.149289 -2.603748,-4.149289c-3.182354,0 -5.992754,1.930855 -5.992754,2.957905c0,0.944889 1.198555,1.109217 2.066471,1.848695c0.743922,0.698394 0.785251,1.355705 0.785251,2.25951l0,9.736436c0,0.944889 -0.123987,1.478956 -0.454619,1.643284c-0.991903,0.492983 -1.901148,0.534067 -1.901148,1.725444c0,0.698394 0.495948,1.109217 1.487858,1.109217l0,0z" id="svg_97"/>
  </g>
 </g>
</svg>
