<?xml version="1.0"?>
<svg width="495" height="135" xmlns="http://www.w3.org/2000/svg" xmlns:svg="http://www.w3.org/2000/svg" clip-rule="evenodd">
 <defs>
  <style type="text/css">
   <![CDATA[
    .fil11 {fill:#FEFEFE}
    .fil1 {fill:#BDBFC1}
    .fil5 {fill:#BDBFC1}
    .fil7 {fill:#373435}
    .fil4 {fill:#373435}
    .fil2 {fill:#718FC8}
    .fil0 {fill:#52658C}
    .fil10 {fill:#52658C}
    .fil8 {fill:white}
    .fil6 {fill:#373435;fill-rule:nonzero}
    .fil3 {fill:#52658C;fill-rule:nonzero}
    .fil9 {fill:white;fill-rule:nonzero}
   ]]>
  </style>
  <pattern height="100" id="gridpattern" patternUnits="userSpaceOnUse" width="100" x="0" y="0">
   <image height="100" id="svg_91" width="100" x="0" y="0"/>
  </pattern>
  <pattern height="100" id="gridpattern" patternUnits="userSpaceOnUse" width="100" x="0" y="0">
   <image height="100" id="svg_1" width="100" x="0" y="0"/>
  </pattern>
 </defs>
 <g class="layer">
  <title>Layer 1</title>
  <metadata id="CorelCorpID_0Corel-Layer"/>
  <g id="svg_92">
   <path class="fil0" d="m78.888943,16.514822l2.463489,0c1.661423,0 2.57807,1.423692 3.036394,3.075174l1.31768,4.954446c2.63536,0.455581 5.15614,1.138953 7.562339,1.993168l3.666589,-3.64465c1.203099,-1.195901 2.692651,-1.936221 4.182203,-1.082006l9.223762,5.296132c1.432261,0.797267 1.546842,2.505697 1.088518,4.157179l-1.31768,5.011394c1.947875,1.651482 3.781169,3.530755 5.499883,5.466975l5.041559,-1.366744c1.604132,-0.455581 3.322846,-0.341686 4.124912,1.082006l5.328011,9.225521c0.859357,1.423692 0.114581,2.961278 -1.088518,4.100231l-3.666589,3.64465c0.859357,2.448749 1.546842,4.954446 2.005166,7.517091l5.041559,1.309796c1.604132,0.455581 3.036394,1.366744 3.036394,3.018226l0,10.649212c0,1.651482 -1.432261,2.562645 -3.036394,3.018226l-5.041559,1.309796c-0.458324,2.562645 -1.145809,5.125289 -2.005166,7.517091l3.666589,3.64465c1.203099,1.138953 1.947875,2.67654 1.088518,4.100231l-5.328011,9.225521c-0.802066,1.423692 -2.52078,1.537587 -4.124912,1.082006l-5.09885,-1.366744c-1.661423,1.993168 -3.494717,3.815493 -5.499883,5.466975l1.374971,5.011394c0.458324,1.651482 0.343743,3.359912 -1.088518,4.157179l-9.223762,5.296132c-1.489552,0.854215 -2.979103,0.056948 -4.182203,-1.082006l-3.666589,-3.64465c-2.463489,0.854215 -4.984269,1.537587 -7.562339,1.993168l-1.31768,4.954446c-0.401033,1.651482 -1.374971,3.075174 -3.036394,3.075174l-10.656023,0c-1.718713,0 -2.63536,-1.423692 -3.093684,-3.075174l-1.31768,-4.954446c-2.57807,-0.455581 -5.09885,-1.138953 -7.562339,-2.050116l-3.666589,3.701598c-1.145809,1.195901 -2.692651,1.936221 -4.124912,1.082006l-9.223762,-5.296132c-1.489552,-0.797267 -1.604132,-2.505697 -1.145809,-4.157179l1.374971,-5.011394c-2.005166,-1.651482 -3.83846,-3.530755 -5.499883,-5.466975l-5.041559,1.366744c-1.604132,0.455581 -3.322846,0.341686 -4.182203,-1.082006l-5.328011,-9.225521c-0.859357,-1.423692 -0.05729,-2.961278 1.088518,-4.100231l3.723879,-3.64465c-0.916647,-2.448749 -1.604132,-4.954446 -2.062456,-7.574039l-4.984269,-1.252849c-1.661423,-0.455581 -3.036394,-1.366744 -3.036394,-3.018226l0,-2.448749c2.921813,1.594535 6.244659,2.448749 9.796666,2.448749l21.426627,0c2.52078,13.154909 14.20803,23.177698 28.186899,23.177698l0,0c15.754872,0 28.645223,-12.813224 28.645223,-28.47383l0,-0.056948c0,-13.838281 -10.025828,-25.455604 -23.259921,-27.961301l0,-21.355373c0,-3.473807 -0.916647,-6.833719 -2.52078,-9.73805l0,0.000001z" id="svg_93"/>
   <path class="fil1" d="m94.529235,75.626493l0,-0.056948c0,-8.257411 -5.557173,-15.261973 -13.119512,-17.596827l0,2.448749c0,11.275637 -9.281052,20.501157 -20.681851,20.501157l-2.463489,0c2.348908,7.574039 9.452923,13.097962 17.760038,13.097962l0,0c10.197699,0 18.504814,-8.314358 18.504814,-18.394094l0,0.000001z" id="svg_94"/>
   <path class="fil2" d="m72.586994,60.421467l0,-34.168596c0,-6.435086 -5.328011,-11.731218 -11.859122,-11.731218l-12.83306,0l0,16.457874c0,9.225521 -7.505048,16.685665 -16.786101,16.685665l-16.556939,0l0,12.756276c0,6.435086 5.328011,11.731218 11.859122,11.731218l34.316977,0c6.531111,0 11.859122,-5.296132 11.859122,-11.731218l0,-0.000001z" id="svg_95"/>
   <path class="fil0" d="m39.072084,30.979527l0,-23.006855c0,-4.38497 -3.552008,-7.972672 -7.963372,-7.972672l-23.14534,0c-4.411364,0 -7.963372,3.587702 -7.963372,7.972672l0,23.006855c0,4.38497 3.552008,7.915725 7.963372,7.915725l23.14534,0c4.411364,0 7.963372,-3.530755 7.963372,-7.915725z" id="svg_96"/>
   <path class="fil3" d="m191.865702,56.150392c14.895516,19.70389 22.343274,30.694789 23.489083,32.11848c1.031228,1.366744 2.062456,1.70843 4.525945,1.70843c3.552008,0 3.953041,-1.138953 3.953041,-4.783603l0,-31.378161c0,-2.164011 0,-3.416859 1.432261,-4.271074c1.145809,-0.626424 2.406199,-0.683372 2.406199,-2.277906c0,-1.480639 -0.859357,-2.277906 -2.406199,-2.277906l-8.937309,0c-1.776004,0 -2.692651,0.74032 -2.692651,2.107064c0,1.822325 1.203099,1.822325 2.864522,2.733488c0.916647,0.512529 1.203099,1.70843 1.203099,3.473807l0,21.070634c-7.390467,-11.047846 -13.692416,-19.533047 -18.733976,-25.626447c-2.005166,-2.448749 -2.749941,-3.758545 -5.786335,-3.758545l-9.567504,0c-1.489552,0 -2.234327,0.626424 -2.234327,1.936221c0,1.936221 1.203099,1.822325 2.749941,2.505697c1.432261,0.626424 1.546842,1.366744 1.546842,3.189069l0,27.334877c0,2.505697 0,3.929388 -1.31768,5.068342c-0.802066,0.683372 -3.322846,0.284738 -3.322846,2.505697c0,1.366744 0.744776,1.936221 2.52078,1.936221l10.140409,0c1.890585,0 2.52078,-0.398634 2.52078,-1.936221c0,-1.70843 -1.26039,-1.651482 -2.692651,-2.220959c-1.604132,-0.683372 -1.661423,-1.651482 -1.661423,-3.929388l0,-25.227813l0,-0.000001zm65.081946,29.669731l0,1.70843c0,1.252849 0.687485,1.936221 2.119746,1.936221l6.817563,0c2.005166,0 2.864522,-0.455581 2.864522,-1.651482c0,-0.854215 -0.687485,-1.252849 -1.833294,-1.879273c-1.26039,-0.683372 -1.661423,-1.025058 -1.661423,-3.64465l0,-19.362204c0,-1.822325 -0.973938,-2.562645 -3.265555,-2.562645c-5.786335,0 -9.682085,1.480639 -9.682085,3.075174c0,0.96811 0.859357,1.309796 1.947875,1.879273c0.401033,0.284738 0.687485,1.252849 0.687485,2.847383l0,12.528485c0,2.961278 -1.718713,4.669708 -4.354074,4.669708c-3.552008,0 -4.354074,-1.879273 -4.354074,-6.264243l0,-16.173135c0,-1.822325 -1.031228,-2.562645 -3.322846,-2.562645c-5.958206,0 -9.968538,1.651482 -9.968538,3.018226c0,1.480639 1.833294,1.822325 2.291618,2.448749c0.458324,0.569477 0.630195,1.594535 0.630195,3.189069l0,10.592265c0,7.232353 3.036394,10.70616 10.369571,10.70616c4.525945,0 8.192534,-1.537587 10.713313,-4.498865l0,-0.000002zm31.681616,-11.788166c1.718713,-1.252849 3.208265,-2.505697 4.354074,-3.587702c7.046725,7.232353 9.911247,13.041014 9.911247,14.009124c0,0.911163 -2.234327,0.96811 -2.234327,3.018226c0,1.082006 1.088518,1.993168 2.979103,1.993168l11.62996,0c2.52078,0 3.781169,-0.626424 3.781169,-2.220959c0,-1.480639 -0.802066,-1.70843 -1.776004,-2.277906c-1.718713,-1.025058 -1.833294,-1.594535 -2.177037,-2.277906c-4.812397,-8.769939 -9.739376,-15.261973 -14.609064,-19.589995c6.47382,-6.435086 9.682085,-10.820055 11.057056,-11.902061c2.005166,-1.537587 4.411364,-1.537587 4.411364,-3.701598c0,-1.70843 -1.31768,-2.505697 -3.953041,-2.505697l-8.307115,0c-2.177037,0 -3.265555,0.797267 -3.265555,2.334854c0,0.797267 0.343743,1.366744 1.088518,1.765378c0.744776,0.455581 1.718713,0.569477 1.718713,1.70843c0,1.082006 -4.583236,7.06151 -14.609064,16.856508l0,-14.066072c0,-1.651482 0.05729,-2.67654 1.031228,-3.359912c0.859357,-0.626424 2.177037,-0.911163 2.177037,-2.790435c0,-1.765378 -1.203099,-2.448749 -3.609298,-2.448749l-11.57267,0c-2.062456,0 -3.208265,1.082006 -3.208265,2.391802c0,1.822325 0.973938,2.107064 2.062456,2.619592c1.489552,0.683372 1.833294,1.309796 1.833294,3.587702l0,29.043307c0,1.480639 -0.458324,1.765378 -1.718713,2.505697c-1.145809,0.683372 -1.661423,1.195901 -1.661423,2.391802c0,1.366744 0.973938,1.936221 3.036394,1.936221l11.62996,0c2.348908,0 3.494717,-0.512529 3.494717,-2.107064c0,-1.651482 -1.031228,-1.936221 -2.177037,-2.448749c-1.26039,-0.683372 -1.31768,-1.423692 -1.31768,-3.64465l0,-7.232353l0,0.000001zm44.686547,0.284738l0,-0.797267c0,-5.865609 2.63536,-9.225521 6.015497,-9.225521c2.062456,0 3.380136,1.366744 3.380136,3.587702c0,3.246016 -3.322846,5.922557 -9.395633,6.435086zm0.343743,4.498865c12.317446,-0.911163 18.447523,-4.157179 18.447523,-10.136683c0,-4.783603 -4.755107,-8.542149 -12.603898,-8.542149c-10.140409,0 -16.614229,6.150347 -16.614229,15.375868c0,9.111625 5.958206,14.806391 15.583001,14.806391c8.822729,0 14.494483,-4.726656 14.494483,-7.630986c0,-1.025058 -0.744776,-1.765378 -1.604132,-1.765378c-1.432261,0 -2.177037,1.082006 -3.380136,2.050116c-2.234327,1.70843 -4.697817,2.562645 -7.161306,2.562645c-3.89575,0 -6.760273,-2.505697 -7.161306,-6.719824l0,0.000001zm36.264852,-4.498865l0,-0.797267c0,-5.865609 2.57807,-9.225521 6.015497,-9.225521c2.062456,0 3.322846,1.366744 3.322846,3.587702c0,3.246016 -3.265555,5.922557 -9.338343,6.435086zm0.286452,4.498865c12.374736,-0.911163 18.504814,-4.157179 18.504814,-10.136683c0,-4.783603 -4.755107,-8.542149 -12.603898,-8.542149c-10.140409,0 -16.614229,6.150347 -16.614229,15.375868c0,9.111625 5.958206,14.806391 15.583001,14.806391c8.822729,0 14.494483,-4.726656 14.494483,-7.630986c0,-1.025058 -0.744776,-1.765378 -1.604132,-1.765378c-1.432261,0 -2.177037,1.082006 -3.437427,2.050116c-2.234327,1.70843 -4.640526,2.562645 -7.104015,2.562645c-3.89575,0 -6.760273,-2.505697 -7.218596,-6.719824l0,0.000001zm36.723176,-14.179967l0,-1.765378c0,-1.822325 -0.458324,-2.562645 -2.234327,-2.562645c-2.463489,0 -5.843625,0.797267 -8.364405,2.050116c-0.859357,0.455581 -1.31768,0.96811 -1.31768,1.70843c0,1.423692 1.203099,1.309796 2.119746,1.879273c1.145809,0.683372 1.26039,1.879273 1.26039,3.758545l0,24.943075c0,1.252849 -0.05729,2.050116 -0.630195,2.505697c-1.031228,0.797267 -2.234327,1.025058 -2.234327,2.334854c0,1.025058 0.744776,1.70843 1.833294,1.70843l11.458089,0c2.177037,0 2.921813,-0.341686 2.921813,-1.765378c0,-1.195901 -0.802066,-1.537587 -2.062456,-2.277906c-1.145809,-0.683372 -1.203099,-1.195901 -1.203099,-2.847383l0,-21.013686c0,-5.694766 1.031228,-8.428254 4.525945,-8.428254c3.437427,0 5.786335,3.416859 5.786335,9.73805c0,6.719824 -2.234327,10.535317 -5.786335,10.535317c-0.458324,0 -0.916647,-0.113895 -1.489552,-0.113895c-1.031228,0 -2.005166,0.911163 -2.005166,1.822325c0,1.879273 2.119746,3.132121 6.015497,3.132121c8.192534,0 13.806997,-5.751714 13.806997,-14.749444c0,-8.940782 -5.385302,-14.920287 -13.291383,-14.920287c-3.552008,0 -6.760273,1.480639 -9.109181,4.328022l0,0.000001zm39.93144,9.681102l0,-0.797267c0,-5.865609 2.57807,-9.225521 6.015497,-9.225521c2.005166,0 3.322846,1.366744 3.322846,3.587702c0,3.246016 -3.265555,5.922557 -9.338343,6.435086zm0.286452,4.498865c12.317446,-0.911163 18.504814,-4.157179 18.504814,-10.136683c0,-4.783603 -4.812397,-8.542149 -12.603898,-8.542149c-10.197699,0 -16.614229,6.150347 -16.614229,15.375868c0,9.111625 5.958206,14.806391 15.525711,14.806391c8.822729,0 14.551773,-4.726656 14.551773,-7.630986c0,-1.025058 -0.744776,-1.765378 -1.604132,-1.765378c-1.432261,0 -2.177037,1.082006 -3.437427,2.050116c-2.234327,1.70843 -4.640526,2.562645 -7.161306,2.562645c-3.89575,0 -6.760273,-2.505697 -7.161306,-6.719824l0,0.000001zm26.926509,10.649212l12.775769,0c1.604132,0 2.406199,-0.569477 2.406199,-1.70843c0,-1.309796 -0.916647,-1.537587 -2.57807,-2.220959c-0.744776,-0.284738 -1.031228,-0.96811 -1.031228,-2.107064l0,-9.510259c0,-4.441917 0.973938,-6.719824 1.890585,-6.719824c0.744776,0 1.776004,0.96811 3.437427,0.96811c2.807232,0 4.354074,-1.480639 4.354074,-3.929388c0,-2.562645 -1.776004,-4.157179 -4.640526,-4.157179c-3.150974,0 -5.557173,1.879273 -7.447758,5.637818c-0.05729,-4.214127 -0.744776,-5.751714 -3.609298,-5.751714c-4.411364,0 -8.307115,2.67654 -8.307115,4.100231c0,1.309796 1.661423,1.537587 2.864522,2.562645c1.031228,0.96811 1.088518,1.879273 1.088518,3.132121l0,13.496595c0,1.309796 -0.171871,2.050116 -0.630195,2.277906c-1.374971,0.683372 -2.63536,0.74032 -2.63536,2.391802c0,0.96811 0.687485,1.537587 2.062456,1.537587l0,0.000001z" id="svg_97"/>
  </g>
 </g>
</svg>