<?xml version="1.0"?>
<svg width="64" height="64" xmlns="http://www.w3.org/2000/svg" xmlns:svg="http://www.w3.org/2000/svg" clip-rule="evenodd">
 <defs>
  <style type="text/css">
   <![CDATA[
    .fil11 {fill:#FEFEFE}
    .fil1 {fill:#BDBFC1}
    .fil5 {fill:#BDBFC1}
    .fil7 {fill:#373435}
    .fil4 {fill:#373435}
    .fil2 {fill:#718FC8}
    .fil0 {fill:#52658C}
    .fil10 {fill:#52658C}
    .fil8 {fill:white}
    .fil6 {fill:#373435;fill-rule:nonzero}
    .fil3 {fill:#52658C;fill-rule:nonzero}
    .fil9 {fill:white;fill-rule:nonzero}
   ]]>
  </style>
 </defs>
 <g class="layer">
  <title>Layer 1</title>
  <metadata id="CorelCorpID_0Corel-Layer"/>
  <g id="_2169062261312">
   <path class="fil0" d="m11.445075,0l40.745353,0c6.299227,0 11.467255,5.145848 11.467255,11.467255l0,40.745353c0,6.299227 -5.168028,11.445075 -11.467255,11.445075l-40.745353,0c-6.299227,0 -11.445075,-5.145848 -11.445075,-11.445075l0,-40.745353c0,-6.321408 5.145848,-11.467255 11.445075,-11.467255z" id="svg_66"/>
   <path class="fil11" d="m10.912746,3.748483l41.810011,0c3.970287,0 7.186442,3.216154 7.186442,7.186442l0,41.810011c0,3.948107 -3.216154,7.186442 -7.186442,7.186442l-41.810011,0c-3.948107,0 -7.186442,-3.238335 -7.186442,-7.186442l0,-41.810011c0,-3.970287 3.238335,-7.186442 7.186442,-7.186442z" id="svg_67"/>
   <g id="svg_68">
    <path class="fil0" d="m35.399882,15.481903l0.776313,0c0.554509,0 0.842855,0.465788 0.975936,0.975936l0.443607,1.596987c0.820674,0.177443 1.619167,0.377066 2.417661,0.665411l1.15338,-1.17556c0.377066,-0.377066 0.865034,-0.621051 1.330823,-0.354886l2.94999,1.707889c0.465788,0.266165 0.510149,0.798494 0.354886,1.330823l-0.421427,1.619167c0.621051,0.532329 1.219921,1.131199 1.75225,1.75225l1.619167,-0.443607c0.510149,-0.133082 1.064658,-0.110902 1.330823,0.354886l1.707889,2.94999c0.266165,0.465788 0.02218,0.953756 -0.354886,1.330823l-1.17556,1.17556c0.266165,0.776313 0.487968,1.596987 0.643231,2.417661l1.596987,0.421427c0.510149,0.133082 0.975936,0.443607 0.975936,0.975936l0,3.415778c0,0.532329 -0.465788,0.842855 -0.975936,0.975936l-1.596987,0.421427c-0.155263,0.820674 -0.377066,1.641348 -0.643231,2.417661l1.17556,1.17556c0.377066,0.377066 0.621051,0.865034 0.354886,1.330823l-1.707889,2.94999c-0.266165,0.465788 -0.820674,0.487968 -1.330823,0.354886l-1.619167,-0.443607c-0.554509,0.643231 -1.131199,1.219921 -1.75225,1.77443l0.421427,1.596987c0.155263,0.532329 0.110902,1.064658 -0.354886,1.330823l-2.94999,1.707889c-0.465788,0.266165 -0.953756,0.02218 -1.330823,-0.354886l-1.17556,-1.17556c-0.776313,0.288345 -1.574807,0.510149 -2.417661,0.665411l-0.421427,1.596987c-0.133082,0.510149 -0.421427,0.953756 -0.975936,0.953756l-3.393598,0c-0.532329,0 -0.842855,-0.443607 -0.975936,-0.953756l-0.443607,-1.596987c-0.820674,-0.177443 -1.619167,-0.377066 -2.417661,-0.665411l-1.15338,1.17556c-0.377066,0.377066 -0.865034,0.621051 -1.330823,0.354886l-2.94999,-1.707889c-0.465788,-0.266165 -0.510149,-0.798494 -0.354886,-1.330823l0.421427,-1.619167c-0.621051,-0.532329 -1.219921,-1.131199 -1.75225,-1.75225l-1.619167,0.443607c-0.510149,0.133082 -1.064658,0.110902 -1.330823,-0.354886l-1.707889,-2.94999c-0.266165,-0.465788 -0.02218,-0.953756 0.354886,-1.330823l1.17556,-1.17556c-0.266165,-0.776313 -0.487968,-1.596987 -0.643231,-2.417661l-1.596987,-0.421427c-0.510149,-0.133082 -0.975936,-0.443607 -0.975936,-0.975936l0,-0.776313c0.931576,0.510149 1.996234,0.798494 3.127434,0.798494l6.853737,0c0.820674,4.214272 4.569158,7.452607 9.027413,7.452607l0,0c5.034946,0 9.160496,-4.147731 9.160496,-9.182676l0,0c0,-4.458256 -3.216154,-8.20674 -7.452607,-9.005233l0,-6.853737c0,-1.131199 -0.288345,-2.195857 -0.798494,-3.149613l0,-0.000001z" id="svg_69"/>
    <path class="fil1" d="m40.412647,34.490487l0,0c0,-2.661645 -1.796611,-4.924043 -4.214272,-5.655996l0,0.776313c0,3.637582 -2.972171,6.609752 -6.609752,6.609752l-0.776313,0c0.754133,2.417661 3.016532,4.192092 5.678177,4.192092l0,0c3.238335,0 5.922161,-2.661645 5.922161,-5.922161z" id="svg_70"/>
    <path class="fil2" d="m33.381468,29.610804l0,-10.979287c0,-2.084955 -1.707889,-3.792844 -3.792844,-3.792844l-4.08119,0l0,5.30111c0,2.94999 -2.417661,5.367652 -5.389832,5.367652l-5.27893,0l0,4.10337c0,2.084955 1.685709,3.770664 3.770664,3.770664l10.979287,0c2.084955,0 3.792844,-1.685709 3.792844,-3.770664l0.000001,-0.000001z" id="svg_71"/>
    <path class="fil0" d="m22.690526,20.139783l0,-7.408246c0,-1.397364 -1.15338,-2.550744 -2.572923,-2.550744l-7.386066,0c-1.419544,0 -2.572923,1.15338 -2.572923,2.550744l0,7.408246c0,1.397364 1.15338,2.550744 2.572923,2.550744l7.386066,0c1.419544,0 2.572923,-1.15338 2.572923,-2.550744z" id="svg_72"/>
   </g>
  </g>
 </g>
</svg>