<?xml version="1.0" encoding="UTF-8"?>
<!DOCTYPE svg PUBLIC "-//W3C//DTD SVG 1.1//EN" "http://www.w3.org/Graphics/SVG/1.1/DTD/svg11.dtd">
<!-- Creator: CorelDRAW X7 -->
<svg xmlns="http://www.w3.org/2000/svg" xml:space="preserve" width="215.9mm" height="700mm" version="1.1" style="shape-rendering:geometricPrecision; text-rendering:geometricPrecision; image-rendering:optimizeQuality; fill-rule:evenodd; clip-rule:evenodd"
viewBox="0 0 21590 70000"
 xmlns:xlink="http://www.w3.org/1999/xlink">
 <defs>
  <style type="text/css">
   <![CDATA[
    .fil11 {fill:#FEFEFE}
    .fil1 {fill:#BDBFC1}
    .fil5 {fill:#BDBFC1}
    .fil7 {fill:#373435}
    .fil4 {fill:#373435}
    .fil2 {fill:#718FC8}
    .fil0 {fill:#52658C}
    .fil10 {fill:#52658C}
    .fil8 {fill:white}
    .fil6 {fill:#373435;fill-rule:nonzero}
    .fil3 {fill:#52658C;fill-rule:nonzero}
    .fil9 {fill:white;fill-rule:nonzero}
   ]]>
  </style>
 </defs>
 <g id="Capa_x0020_1">
  <metadata id="CorelCorpID_0Corel-Layer"/>
  <g id="_2169062221984">
   <path class="fil0" d="M5210 2115l43 0c29,0 45,25 53,53l23 88c45,8 90,20 132,35l64 -64c21,-21 47,-34 73,-19l161 93c25,14 27,44 19,72l-23 89c34,29 66,61 96,96l88 -24c28,-8 58,-6 72,19l93 161c15,26 2,52 -19,73l-64 64c15,43 27,87 35,132l88 23c28,7 53,24 53,53l0 186c0,30 -25,46 -53,53l-88 24c-8,45 -20,89 -35,132l64 64c21,20 34,47 19,72l-93 161c-14,26 -44,27 -72,20l-89 -24c-29,34 -61,67 -96,96l24 88c8,28 6,58 -19,73l-161 93c-26,15 -52,1 -73,-20l-64 -64c-43,15 -87,27 -132,36l-23 87c-8,28 -24,53 -53,53l-186 0c-30,0 -46,-25 -54,-53l-23 -87c-45,-9 -89,-21 -132,-36l-64 64c-20,21 -47,35 -72,20l-162 -93c-25,-15 -27,-45 -19,-73l24 -88c-35,-30 -67,-62 -96,-96l-88 24c-29,8 -58,6 -73,-20l-93 -161c-15,-25 -1,-52 19,-72l64 -64c-15,-43 -27,-87 -35,-133l-87 -23c-29,-7 -53,-23 -53,-53l0 -42c50,27 109,43 171,43l374 0c44,231 248,407 492,407l0 0c275,0 500,-225 500,-501l0 0c0,-243 -175,-447 -406,-492l0 -374c0,-62 -16,-120 -44,-171z"/>
   <path class="fil1" d="M5483 3152l0 0c0,-145 -97,-269 -229,-309l0 42c0,199 -162,361 -361,361l-43 0c41,133 164,230 310,230l0 0c177,0 323,-146 323,-324z"/>
   <path class="fil2" d="M5100 2885l0 -599c0,-114 -93,-207 -207,-207l-224 0 0 290c0,161 -131,293 -293,293l-289 0 0 223c0,114 93,207 207,207l599 0c114,0 207,-93 207,-207z"/>
   <path class="fil0" d="M4515 2369l0 -405c0,-76 -62,-139 -139,-139l-404 0c-77,0 -140,63 -140,139l0 405c0,76 63,139 140,139l404 0c77,0 139,-63 139,-139z"/>
   <path class="fil3" d="M2463 5179c261,346 391,539 411,564 18,24 35,30 79,30 61,0 69,-20 69,-84l0 -551c0,-38 0,-60 25,-75 19,-11 42,-12 42,-40 0,-26 -15,-40 -42,-40l-156 0c-31,0 -48,13 -48,37 0,32 22,32 51,48 15,9 21,29 21,61l0 370c-129,-194 -240,-343 -327,-450 -35,-43 -48,-66 -101,-66l-168 0c-26,0 -39,11 -39,33 0,35 22,33 49,45 25,11 27,24 27,56l0 480c0,44 0,69 -24,89 -14,12 -57,5 -57,44 0,24 13,33 43,33l178 0c32,0 44,-6 44,-33 0,-30 -23,-29 -47,-39 -29,-12 -30,-29 -30,-69l0 -443zm1137 521l0 30c0,22 12,33 37,33l119 0c35,0 50,-7 50,-28 0,-15 -12,-22 -33,-33 -21,-12 -28,-19 -28,-64l0 -340c0,-33 -17,-46 -57,-46 -101,0 -169,26 -169,55 0,17 15,22 33,33 8,4 12,22 12,50l0 220c0,52 -29,82 -75,82 -62,0 -76,-34 -76,-110l0 -284c0,-33 -19,-46 -59,-46 -104,0 -173,30 -173,54 0,25 32,32 40,43 8,10 11,28 11,56l0 186c0,127 53,188 181,188 79,0 143,-27 187,-79zm552 -207c31,-23 57,-44 77,-64 122,128 172,230 172,247 0,16 -39,17 -39,53 0,19 20,34 52,34l204 0c44,0 66,-10 66,-39 0,-25 -14,-30 -32,-39 -29,-18 -31,-29 -38,-40 -83,-154 -169,-269 -254,-344 113,-113 169,-191 193,-209 34,-27 77,-27 77,-65 0,-30 -23,-44 -70,-44l-145 0c-38,0 -56,14 -56,41 0,14 5,24 18,31 13,8 31,10 31,30 0,19 -80,124 -256,296l0 -247c0,-29 1,-47 19,-59 15,-11 38,-16 38,-49 0,-31 -21,-43 -63,-43l-203 0c-35,0 -55,18 -55,42 0,31 16,37 36,45 26,12 31,24 31,64l0 509c0,26 -7,32 -29,45 -21,12 -29,20 -29,42 0,24 17,33 53,33l202 0c41,0 62,-8 62,-36 0,-29 -18,-34 -38,-44 -23,-11 -24,-24 -24,-63l0 -127zm781 5l0 -14c0,-103 45,-162 105,-162 36,0 58,24 58,63 0,57 -57,103 -163,113zm5 79c216,-16 323,-73 323,-178 0,-84 -83,-150 -220,-150 -177,0 -290,107 -290,270 0,160 104,260 272,260 153,0 253,-83 253,-135 0,-17 -13,-30 -28,-30 -25,0 -38,18 -60,36 -39,30 -81,45 -124,45 -68,0 -118,-44 -126,-118zm634 -79l0 -14c0,-103 45,-162 105,-162 35,0 58,24 58,63 0,57 -57,103 -163,113zm5 79c215,-16 323,-73 323,-178 0,-84 -84,-150 -220,-150 -178,0 -290,107 -290,270 0,160 104,260 272,260 153,0 253,-83 253,-135 0,-17 -13,-30 -28,-30 -25,0 -38,18 -60,36 -39,30 -81,45 -124,45 -69,0 -118,-44 -126,-118zm641 -249l0 -31c0,-33 -9,-46 -39,-46 -43,0 -103,14 -146,37 -15,8 -23,16 -23,29 0,25 21,24 37,34 19,12 22,32 22,66l0 437c0,23 -1,37 -11,45 -19,14 -39,18 -39,41 0,18 13,30 31,30l201 0c37,0 50,-6 50,-31 0,-21 -14,-27 -35,-40 -20,-12 -21,-21 -21,-50l0 -369c0,-100 17,-149 79,-149 60,0 101,61 101,172 0,118 -39,185 -101,185 -9,0 -16,-3 -26,-3 -18,0 -36,17 -36,33 0,32 37,55 105,55 143,0 242,-102 242,-260 0,-157 -94,-262 -232,-262 -63,0 -118,26 -159,77zm696 170l0 -14c0,-103 46,-162 105,-162 36,0 59,24 59,63 0,57 -58,103 -164,113zm6 79c215,-16 322,-73 322,-178 0,-84 -83,-150 -220,-150 -177,0 -290,107 -290,270 0,160 104,260 272,260 154,0 253,-83 253,-135 0,-17 -13,-30 -28,-30 -25,0 -38,18 -59,36 -39,30 -82,45 -125,45 -68,0 -118,-44 -125,-118zm470 186l223 0c28,0 42,-9 42,-29 0,-24 -16,-27 -46,-39 -13,-5 -17,-17 -17,-38l0 -166c0,-78 16,-118 32,-118 13,0 32,17 61,17 49,0 76,-26 76,-69 0,-45 -32,-73 -81,-73 -56,0 -98,33 -130,99 -1,-74 -13,-101 -63,-101 -77,0 -145,47 -145,71 0,24 29,27 50,46 18,17 19,32 19,55l0 237c0,23 -3,36 -12,40 -24,12 -45,13 -45,41 0,18 12,27 36,27z"/>
  </g>
  <path class="fil4" d="M5139 32323l42 0c30,0 46,25 54,53l23 87c45,9 89,21 132,36l64 -64c20,-21 47,-34 72,-20l161 93c26,15 27,45 20,73l-24 88c35,30 67,62 96,96l88 -24c28,-7 58,-6 73,20l93 161c15,25 1,52 -19,73l-65 64c16,42 27,86 36,132l87 23c28,7 53,24 53,53l0 186c0,29 -25,46 -53,53l-87 23c-9,46 -21,90 -36,133l64 63c21,21 35,47 20,73l-93 161c-15,25 -45,27 -73,19l-88 -23c-30,34 -62,66 -96,96l24 88c8,28 6,58 -20,72l-161 94c-25,14 -52,1 -72,-20l-64 -64c-43,15 -87,27 -133,36l-22 87c-8,28 -24,53 -54,53l-186 0c-29,0 -45,-25 -53,-53l-23 -87c-46,-9 -90,-21 -133,-36l-63 64c-21,21 -47,34 -73,20l-161 -94c-25,-14 -27,-44 -19,-72l23 -88c-34,-30 -66,-62 -96,-97l-88 24c-28,8 -58,6 -72,-19l-93 -161c-15,-26 -2,-52 19,-73l64 -64c-15,-43 -27,-87 -36,-132l-87 -23c-28,-7 -53,-24 -53,-53l0 -43c51,28 109,44 171,44l374 0c45,231 249,407 492,407l0 0c276,0 501,-226 501,-501l0 0c0,-243 -176,-448 -407,-492l0 -374c0,-62 -15,-120 -43,-171z"/>
  <path class="fil1" d="M5412 33360l0 0c0,-145 -97,-269 -230,-309l0 42c0,199 -162,361 -360,361l-43 0c40,132 164,229 309,229l0 0c178,0 324,-145 324,-323z"/>
  <path class="fil5" d="M5028 33093l0 -599c0,-114 -93,-207 -206,-207l-224 0 0 289c0,162 -132,294 -293,294l-289 0 0 223c0,114 93,207 206,207l600 0c113,0 206,-93 206,-207z"/>
  <path class="fil4" d="M4444 32576l0 -404c0,-77 -63,-139 -139,-139l-405 0c-76,0 -139,62 -139,139l0 404c0,77 63,140 139,140l405 0c76,0 139,-63 139,-140z"/>
  <path class="fil6" d="M2392 35386c261,346 391,540 410,564 19,24 36,31 79,31 62,0 69,-21 69,-84l0 -552c0,-38 0,-59 25,-75 20,-10 43,-11 43,-40 0,-25 -16,-39 -43,-39l-155 0c-32,0 -48,13 -48,36 0,33 22,33 51,49 15,9 20,29 20,61l0 369c-128,-193 -239,-342 -327,-450 -34,-43 -47,-65 -100,-65l-168 0c-26,0 -39,10 -39,33 0,35 22,32 49,44 25,11 27,24 27,57l0 480c0,44 0,69 -24,88 -14,12 -57,6 -57,44 0,24 13,34 43,34l177 0c33,0 45,-6 45,-34 0,-30 -23,-29 -48,-38 -28,-12 -29,-30 -29,-70l0 -443zm1137 521l0 30c0,22 12,34 36,34l120 0c34,0 49,-8 49,-28 0,-15 -12,-23 -32,-34 -22,-12 -28,-18 -28,-64l0 -339c0,-33 -18,-46 -58,-46 -100,0 -169,26 -169,54 0,18 16,23 34,34 8,4 12,21 12,50l0 219c0,52 -29,83 -76,83 -62,0 -76,-34 -76,-111l0 -283c0,-33 -18,-46 -58,-46 -104,0 -173,29 -173,53 0,26 31,33 40,43 7,10 11,29 11,57l0 186c0,127 53,187 180,187 79,0 143,-27 188,-79zm552 -206c30,-23 56,-45 77,-64 122,128 172,229 172,247 0,16 -39,17 -39,52 0,20 19,35 52,35l203 0c45,0 66,-11 66,-39 0,-26 -14,-30 -31,-40 -29,-17 -31,-28 -38,-40 -83,-153 -170,-268 -254,-344 112,-112 169,-190 192,-208 35,-27 77,-27 77,-65 0,-30 -22,-44 -69,-44l-145 0c-38,0 -56,14 -56,41 0,14 5,23 18,31 13,7 30,10 30,29 0,20 -80,124 -255,296l0 -246c0,-29 1,-48 18,-60 15,-10 38,-16 38,-48 0,-32 -20,-43 -63,-43l-202 0c-36,0 -55,18 -55,42 0,31 16,36 35,45 26,12 32,24 32,64l0 509c0,26 -8,31 -29,44 -21,12 -30,21 -30,42 0,24 18,34 53,34l203 0c41,0 62,-9 62,-37 0,-29 -19,-33 -38,-43 -23,-12 -24,-25 -24,-64l0 -126zm780 5l0 -14c0,-103 46,-163 105,-163 36,0 59,24 59,63 0,58 -57,104 -164,114zm6 79c215,-16 322,-74 322,-179 0,-83 -83,-149 -219,-149 -178,0 -290,107 -290,269 0,161 104,260 271,260 154,0 254,-82 254,-134 0,-17 -13,-30 -29,-30 -24,0 -37,18 -59,35 -39,31 -81,46 -125,46 -68,0 -118,-45 -125,-118zm633 -79l0 -14c0,-103 46,-163 105,-163 36,0 59,24 59,63 0,58 -58,104 -164,114zm6 79c215,-16 322,-74 322,-179 0,-83 -83,-149 -219,-149 -178,0 -291,107 -291,269 0,161 104,260 272,260 154,0 253,-82 253,-134 0,-17 -13,-30 -28,-30 -25,0 -38,18 -59,35 -39,31 -81,46 -125,46 -68,0 -118,-45 -125,-118zm641 -249l0 -32c0,-32 -9,-45 -39,-45 -44,0 -103,14 -146,37 -16,7 -23,16 -23,29 0,25 20,24 37,34 19,12 21,32 21,66l0 437c0,23 -1,37 -11,44 -18,14 -39,19 -39,42 0,18 13,30 32,30l200 0c38,0 51,-7 51,-32 0,-20 -14,-27 -36,-40 -19,-12 -20,-20 -20,-49l0 -370c0,-99 17,-148 79,-148 59,0 100,61 100,171 0,118 -39,185 -100,185 -9,0 -17,-2 -26,-2 -19,0 -36,16 -36,33 0,32 37,55 105,55 143,0 241,-102 241,-260 0,-157 -94,-262 -231,-262 -63,0 -118,26 -159,77zm696 170l0 -14c0,-103 45,-163 105,-163 36,0 58,24 58,63 0,58 -57,104 -163,114zm5 79c216,-16 323,-74 323,-179 0,-83 -84,-149 -220,-149 -177,0 -290,107 -290,269 0,161 104,260 272,260 153,0 253,-82 253,-134 0,-17 -13,-30 -28,-30 -25,0 -38,18 -60,35 -39,31 -81,46 -124,46 -68,0 -118,-45 -126,-118zm470 186l223 0c28,0 42,-10 42,-29 0,-24 -16,-27 -45,-39 -13,-6 -17,-17 -17,-38l0 -167c0,-78 16,-118 32,-118 13,0 31,18 61,18 48,0 75,-26 75,-70 0,-44 -31,-72 -81,-72 -55,0 -97,32 -130,98 -1,-73 -13,-100 -62,-100 -77,0 -145,46 -145,71 0,24 29,27 49,46 19,17 20,32 20,55l0 237c0,23 -3,36 -12,40 -24,12 -46,13 -46,41 0,17 12,27 36,27z"/>
  <path class="fil7" d="M5959 54559l42 0c30,0 46,25 54,53l23 87c45,9 89,21 132,36l64 -64c20,-21 47,-34 72,-20l162 93c25,15 27,45 19,73l-24 88c35,30 67,62 96,96l88 -24c29,-7 58,-6 73,20l93 161c15,25 1,52 -19,73l-64 64c15,42 27,86 35,132l87 23c29,7 53,24 53,53l0 186c0,29 -24,46 -53,53l-87 24c-9,45 -21,89 -36,132l65 63c20,21 34,48 19,73l-93 161c-15,25 -44,27 -73,20l-88 -24c-30,34 -62,66 -96,96l24 88c8,28 6,58 -19,73l-162 93c-25,14 -52,1 -72,-20l-64 -64c-43,15 -87,27 -132,36l-23 87c-8,28 -24,53 -54,53l-186 0c-29,0 -45,-25 -53,-53l-23 -87c-46,-9 -90,-21 -133,-36l-63 64c-21,21 -47,34 -73,20l-161 -93c-25,-15 -27,-45 -19,-73l23 -88c-34,-30 -66,-62 -96,-97l-88 25c-28,7 -58,5 -72,-20l-93 -161c-15,-25 -2,-52 19,-73l64 -64c-15,-42 -27,-87 -35,-132l-88 -23c-28,-7 -53,-24 -53,-53l0 -42c51,27 109,43 171,43l375 0c44,231 248,407 491,407l0 0c276,0 501,-226 501,-501l0 0c0,-243 -176,-448 -407,-492l0 -374c0,-62 -15,-120 -43,-171zm273 1037l0 0c0,-145 -97,-269 -230,-309l0 42c0,199 -162,361 -360,361l-43 0c41,132 164,229 309,229l0 0c178,0 324,-145 324,-323zm-384 -267l0 -599c0,-114 -93,-207 -206,-207l-224 0 0 289c0,162 -132,294 -293,294l-289 0 0 223c0,114 93,207 206,207l600 0c113,0 206,-93 206,-207zm-584 -517l0 -404c0,-77 -63,-139 -139,-139l-404 0c-77,0 -140,62 -140,139l0 404c0,77 63,140 140,140l404 0c76,0 139,-63 139,-140zm-2052 2810c261,346 391,540 410,565 19,23 36,30 79,30 62,0 70,-21 70,-84l0 -552c0,-38 0,-59 24,-74 20,-11 43,-12 43,-40 0,-26 -15,-40 -43,-40l-155 0c-32,0 -48,13 -48,36 0,33 22,33 51,49 15,9 20,29 20,61l0 369c-128,-193 -239,-342 -327,-450 -34,-43 -47,-65 -100,-65l-168 0c-26,0 -39,10 -39,33 0,35 22,32 49,44 25,11 27,24 27,57l0 480c0,44 0,69 -24,88 -14,12 -57,6 -57,45 0,23 13,33 43,33l177 0c33,0 45,-6 45,-33 0,-31 -23,-29 -48,-39 -28,-12 -29,-29 -29,-70l0 -443zm1137 521l0 31c0,21 12,33 37,33l119 0c34,0 49,-7 49,-28 0,-15 -11,-23 -32,-34 -22,-11 -28,-18 -28,-63l0 -340c0,-33 -18,-46 -58,-46 -100,0 -168,26 -168,54 0,18 15,23 33,34 8,4 12,22 12,50l0 219c0,52 -29,83 -76,83 -61,0 -76,-34 -76,-111l0 -283c0,-33 -18,-46 -58,-46 -104,0 -173,29 -173,53 0,26 31,33 40,44 7,9 11,28 11,56l0 186c0,127 53,187 180,187 80,0 143,-27 188,-79zm552 -206c30,-23 56,-45 77,-64 122,128 172,229 172,247 0,16 -39,17 -39,52 0,20 19,35 52,35l203 0c45,0 66,-11 66,-39 0,-26 -14,-30 -31,-40 -29,-17 -31,-28 -38,-40 -83,-153 -170,-268 -254,-343 112,-113 169,-191 192,-209 35,-27 77,-27 77,-65 0,-30 -22,-44 -69,-44l-145 0c-38,0 -56,14 -56,41 0,14 5,23 18,31 13,8 30,10 30,29 0,20 -80,125 -255,296l0 -246c0,-29 1,-48 18,-60 16,-10 38,-16 38,-48 0,-31 -20,-43 -63,-43l-202 0c-36,0 -55,18 -55,42 0,31 16,36 36,45 26,12 31,24 31,64l0 509c0,26 -8,32 -29,45 -21,11 -30,20 -30,42 0,23 18,33 54,33l202 0c41,0 62,-9 62,-37 0,-29 -19,-33 -38,-43 -23,-12 -24,-25 -24,-64l0 -126zm781 5l0 -14c0,-103 45,-163 105,-163 35,0 58,24 58,63 0,58 -57,104 -163,114zm5 79c215,-16 323,-74 323,-179 0,-83 -84,-149 -220,-149 -178,0 -290,107 -290,269 0,161 104,260 271,260 154,0 254,-82 254,-134 0,-17 -13,-30 -28,-30 -25,0 -38,18 -60,35 -39,31 -81,46 -124,46 -69,0 -118,-44 -126,-118zm633 -79l0 -14c0,-103 46,-163 105,-163 36,0 59,24 59,63 0,58 -58,104 -164,114zm6 79c215,-16 322,-74 322,-179 0,-83 -83,-149 -219,-149 -178,0 -291,107 -291,269 0,161 104,260 272,260 154,0 254,-82 254,-134 0,-17 -13,-30 -29,-30 -25,0 -38,18 -59,35 -39,31 -81,46 -125,46 -68,0 -118,-44 -125,-118zm641 -249l0 -31c0,-33 -9,-46 -39,-46 -44,0 -103,14 -146,37 -16,7 -23,16 -23,29 0,25 20,24 37,34 19,12 21,32 21,66l0 437c0,23 -1,37 -10,44 -19,15 -39,19 -39,42 0,18 13,30 31,30l200 0c38,0 51,-7 51,-32 0,-20 -14,-27 -36,-40 -19,-11 -20,-20 -20,-49l0 -369c0,-100 17,-149 79,-149 59,0 100,61 100,171 0,118 -38,185 -100,185 -9,0 -16,-2 -26,-2 -19,0 -36,16 -36,33 0,32 37,55 105,55 143,0 242,-102 242,-260 0,-157 -95,-262 -232,-262 -63,0 -118,26 -159,77zm696 170l0 -14c0,-103 45,-163 105,-163 36,0 58,24 58,63 0,58 -57,104 -163,114zm5 79c216,-16 323,-74 323,-179 0,-83 -83,-149 -220,-149 -177,0 -290,107 -290,269 0,161 104,260 272,260 153,0 253,-82 253,-134 0,-17 -13,-30 -28,-30 -25,0 -38,18 -60,35 -39,31 -81,46 -124,46 -68,0 -118,-44 -126,-118zm470 186l223 0c28,0 42,-10 42,-29 0,-24 -16,-27 -45,-39 -13,-5 -17,-17 -17,-38l0 -167c0,-78 16,-118 32,-118 13,0 32,18 61,18 48,0 76,-26 76,-70 0,-44 -32,-72 -82,-72 -55,0 -97,32 -130,98 -1,-73 -13,-100 -62,-100 -77,0 -145,46 -145,71 0,24 29,27 49,46 19,17 20,32 20,55l0 237c0,23 -3,36 -12,40 -24,12 -45,13 -45,41 0,17 11,27 35,27z"/>
  <g id="_2169062214080">
   <path class="fil0" d="M14118 12171l5509 0c161,0 292,131 292,291l0 5510c0,160 -131,291 -292,291l-5509 0c-160,0 -291,-131 -291,-291l0 -5510c0,-160 131,-291 291,-291z"/>
   <g>
    <path class="fil8" d="M17042 13645l38 0c25,0 40,22 47,47l20 77c40,8 79,18 117,32l56 -57c18,-18 41,-30 64,-17l142 82c22,13 24,39 17,64l-21 78c30,26 59,54 85,85l77 -22c25,-6 52,-5 65,18l82 142c12,22 1,46 -18,64l-56 56c13,38 24,77 31,117l77 20c25,7 47,21 47,47l0 164c0,26 -22,40 -47,47l-77 21c-7,39 -18,78 -31,116l56 56c19,18 30,42 18,64l-82 142c-13,23 -40,24 -65,17l-77 -20c-27,30 -55,58 -85,84l21 78c7,25 5,51 -17,64l-142 82c-23,13 -46,1 -64,-17l-57 -57c-37,14 -76,24 -116,32l-20 77c-7,24 -22,46 -47,46l-164 0c-26,0 -41,-22 -47,-46l-21 -77c-40,-8 -79,-19 -117,-32l-56 57c-18,18 -41,30 -64,17l-142 -82c-22,-13 -24,-39 -17,-64l21 -78c-30,-26 -59,-55 -85,-85l-77 21c-25,7 -51,6 -64,-17l-82 -142c-13,-22 -1,-46 17,-64l56 -56c-13,-38 -24,-77 -31,-117l-77 -20c-25,-7 -47,-21 -47,-47l0 -37c45,24 96,38 151,38l330 0c39,203 219,358 434,358l0 0c242,0 441,-198 441,-441l0 0c0,-215 -155,-395 -359,-434l0 -330c0,-54 -13,-106 -38,-151z"/>
    <path class="fil1" d="M17283 14560l0 0c0,-128 -86,-237 -203,-273l0 38c0,175 -142,318 -318,318l-37 0c36,117 145,202 273,202l0 0c156,0 285,-128 285,-285z"/>
    <path class="fil2" d="M16945 14325l0 -529c0,-100 -82,-182 -183,-182l-197 0 0 255c0,143 -116,259 -258,259l-255 0 0 197c0,100 82,182 182,182l528 0c101,0 183,-82 183,-182z"/>
    <path class="fil8" d="M16430 13869l0 -356c0,-68 -56,-123 -123,-123l-357 0c-67,0 -123,55 -123,123l0 356c0,68 56,123 123,123l357 0c67,0 123,-55 123,-123z"/>
    <path class="fil9" d="M14620 16347c230,305 345,476 362,497 16,21 31,27 69,27 55,0 62,-18 62,-74l0 -486c0,-34 0,-53 22,-66 17,-10 37,-11 37,-36 0,-22 -14,-35 -37,-35l-138 0c-28,0 -42,12 -42,33 0,28 19,28 45,42 13,8 18,26 18,54l0 326c-114,-171 -211,-302 -288,-397 -31,-38 -42,-58 -89,-58l-148 0c-23,0 -34,10 -34,30 0,30 19,28 43,39 22,9 24,21 24,49l0 424c0,39 0,61 -21,78 -13,10 -51,5 -51,39 0,21 11,29 38,29l157 0c28,0 39,-5 39,-29 0,-27 -20,-26 -42,-34 -25,-11 -26,-26 -26,-61l0 -391zm1002 459l0 27c0,19 11,29 33,29l105 0c30,0 44,-6 44,-24 0,-14 -11,-20 -29,-30 -19,-10 -25,-16 -25,-56l0 -300c0,-29 -15,-40 -50,-40 -89,0 -149,23 -149,48 0,15 13,20 29,29 7,4 11,19 11,44l0 194c0,46 -26,72 -67,72 -54,0 -67,-29 -67,-97l0 -250c0,-29 -16,-40 -51,-40 -92,0 -153,26 -153,47 0,23 28,28 35,38 7,8 10,25 10,50l0 164c0,111 47,165 159,165 70,0 126,-24 165,-70zm487 -182c27,-20 50,-39 68,-56 108,112 152,202 152,217 0,15 -35,16 -35,47 0,17 18,30 46,30l180 0c39,0 58,-9 58,-34 0,-23 -12,-26 -28,-35 -25,-15 -27,-25 -33,-35 -74,-136 -150,-237 -224,-303 99,-100 148,-168 169,-185 31,-23 68,-23 68,-57 0,-26 -20,-39 -61,-39l-128 0c-33,0 -49,13 -49,36 0,13 4,21 16,28 11,7 27,9 27,26 0,17 -71,109 -226,261l0 -217c0,-26 1,-42 17,-53 13,-9 33,-14 33,-43 0,-27 -18,-38 -55,-38l-179 0c-31,0 -49,16 -49,37 0,28 15,33 32,40 23,11 28,21 28,57l0 449c0,23 -7,27 -26,39 -18,10 -26,18 -26,37 0,21 15,29 47,29l178 0c37,0 55,-7 55,-32 0,-26 -17,-29 -34,-38 -20,-11 -21,-22 -21,-56l0 -112zm689 5l0 -13c0,-90 40,-143 92,-143 32,0 52,21 52,55 0,51 -51,92 -144,101zm4 69c190,-14 285,-65 285,-157 0,-74 -74,-132 -194,-132 -156,0 -256,95 -256,238 0,141 92,229 240,229 135,0 223,-73 223,-119 0,-15 -11,-26 -25,-26 -22,0 -33,16 -52,31 -34,27 -72,40 -110,40 -60,0 -104,-39 -111,-104zm559 -69l0 -13c0,-90 40,-143 92,-143 32,0 52,21 52,55 0,51 -51,92 -144,101zm5 69c190,-14 284,-65 284,-157 0,-74 -73,-132 -194,-132 -156,0 -255,95 -255,238 0,141 91,229 239,229 136,0 223,-73 223,-119 0,-15 -11,-26 -24,-26 -22,0 -34,16 -53,31 -34,27 -71,40 -110,40 -60,0 -104,-39 -110,-104zm565 -219l0 -28c0,-29 -8,-40 -35,-40 -38,0 -90,12 -128,32 -14,7 -20,15 -20,26 0,22 18,21 32,30 17,10 19,28 19,58l0 386c0,20 -1,32 -9,39 -17,12 -35,16 -35,36 0,16 12,27 28,27l176 0c34,0 45,-6 45,-28 0,-18 -12,-24 -31,-35 -17,-11 -18,-18 -18,-44l0 -326c0,-87 15,-130 69,-130 53,0 89,53 89,150 0,104 -34,164 -89,164 -7,0 -14,-2 -23,-2 -16,0 -31,14 -31,28 0,29 32,49 93,49 126,0 212,-90 212,-229 0,-138 -83,-231 -204,-231 -55,0 -104,23 -140,68zm614 150l0 -13c0,-90 40,-143 92,-143 32,0 52,21 52,55 0,51 -51,92 -144,101zm4 69c190,-14 285,-65 285,-157 0,-74 -74,-132 -194,-132 -156,0 -256,95 -256,238 0,141 92,229 240,229 135,0 223,-73 223,-119 0,-15 -11,-26 -25,-26 -21,0 -33,16 -52,31 -34,27 -72,40 -110,40 -60,0 -104,-39 -111,-104zm415 164l196 0c25,0 38,-8 38,-25 0,-21 -15,-24 -40,-35 -12,-4 -16,-15 -16,-33l0 -147c0,-69 15,-104 29,-104 11,0 28,15 53,15 43,0 67,-23 67,-61 0,-39 -27,-64 -71,-64 -49,0 -86,29 -115,87 -1,-65 -11,-89 -55,-89 -68,0 -128,41 -128,63 0,21 26,24 44,40 16,16 17,29 17,49l0 209c0,20 -3,32 -11,35 -21,11 -40,12 -40,37 0,15 11,23 32,23z"/>
   </g>
  </g>
  <path class="fil4" d="M14364 37220l5509 0c161,0 292,131 292,291l0 5510c0,160 -131,291 -292,291l-5509 0c-161,0 -292,-131 -292,-291l0 -5510c0,-160 131,-291 292,-291z"/>
  <g id="_2169062212480">
   <path class="fil8" d="M17288 38695l38 0c25,0 40,22 46,47l21 76c40,8 79,19 117,32l56 -57c18,-18 41,-30 64,-17l142 82c22,13 24,39 17,64l-21 78c30,26 59,55 85,85l77 -21c25,-7 52,-6 64,17l83 142c12,22 1,46 -18,64l-56 56c13,38 24,77 31,117l77 20c25,7 47,21 47,47l0 164c0,26 -22,40 -47,47l-77 21c-7,40 -18,78 -31,116l56 56c19,18 30,42 18,64l-83 142c-12,23 -39,24 -64,18l-78 -21c-26,30 -54,58 -84,84l21 78c7,25 5,51 -17,64l-142 82c-23,13 -46,1 -64,-17l-57 -57c-38,14 -76,24 -116,32l-21 77c-6,25 -21,47 -46,47l-165 0c-25,0 -40,-22 -46,-47l-21 -77c-40,-8 -79,-18 -117,-32l-56 57c-18,18 -41,30 -64,17l-142 -82c-22,-13 -24,-39 -17,-64l21 -78c-30,-26 -59,-54 -85,-85l-77 22c-25,6 -52,5 -64,-18l-83 -142c-12,-22 -1,-46 18,-64l56 -56c-13,-38 -24,-77 -31,-117l-77 -20c-25,-6 -47,-21 -47,-47l0 -37c45,24 96,38 151,38l330 0c39,204 219,359 433,359l1 0c242,0 441,-199 441,-442l0 0c0,-214 -155,-394 -359,-434l0 -330c0,-54 -13,-105 -38,-150z"/>
   <path class="fil1" d="M17529 39609l0 0c0,-128 -86,-237 -203,-273l0 38c0,175 -142,318 -318,318l-37 0c36,117 144,202 272,202l1 0c156,0 285,-128 285,-285z"/>
   <path class="fil1" d="M17191 39374l0 -529c0,-100 -82,-182 -183,-182l-197 0 0 255c0,143 -116,259 -258,259l-255 0 0 197c0,100 82,182 182,182l528 0c101,0 183,-82 183,-182z"/>
   <path class="fil8" d="M16675 38918l0 -356c0,-68 -55,-123 -122,-123l-357 0c-67,0 -123,55 -123,123l0 356c0,68 56,123 123,123l357 0c67,0 122,-55 122,-123z"/>
   <path class="fil9" d="M14866 41396c230,305 345,476 362,497 16,21 31,27 69,27 55,0 61,-18 61,-74l0 -486c0,-34 0,-53 22,-66 18,-10 38,-11 38,-35 0,-23 -14,-36 -38,-36l-137 0c-28,0 -42,12 -42,33 0,28 19,28 45,43 13,7 18,25 18,53l0 326c-114,-171 -211,-302 -288,-397 -31,-38 -42,-58 -89,-58l-148 0c-23,0 -34,10 -34,30 0,30 19,28 43,39 22,9 23,21 23,50l0 423c0,39 0,61 -21,78 -12,11 -50,5 -50,39 0,21 11,30 38,30l157 0c28,0 39,-6 39,-30 0,-27 -20,-26 -42,-34 -25,-11 -26,-26 -26,-61l0 -391zm1002 459l0 27c0,19 11,30 33,30l105 0c30,0 44,-7 44,-25 0,-14 -11,-20 -29,-30 -19,-10 -25,-16 -25,-56l0 -300c0,-28 -15,-40 -50,-40 -89,0 -149,23 -149,48 0,15 13,20 29,29 7,4 11,19 11,44l0 194c0,46 -26,73 -67,73 -54,0 -67,-30 -67,-98l0 -250c0,-28 -16,-40 -51,-40 -92,0 -153,26 -153,47 0,23 28,28 35,38 7,9 10,25 10,50l0 164c0,112 47,165 159,165 70,0 126,-24 165,-70zm487 -182c27,-20 50,-39 68,-56 108,113 152,202 152,217 0,15 -35,16 -35,47 0,17 18,31 46,31l180 0c39,0 58,-10 58,-35 0,-23 -13,-26 -28,-35 -26,-15 -27,-25 -33,-35 -74,-136 -150,-237 -225,-303 100,-100 149,-168 170,-184 31,-24 68,-24 68,-58 0,-26 -20,-39 -61,-39l-128 0c-33,0 -49,13 -49,36 0,13 4,21 16,28 11,7 26,9 26,26 0,17 -70,110 -225,261l0 -217c0,-26 1,-42 16,-53 14,-9 34,-14 34,-43 0,-27 -18,-38 -56,-38l-178 0c-32,0 -49,17 -49,37 0,28 15,33 32,41 23,10 27,21 27,56l0 449c0,23 -6,27 -25,39 -18,10 -26,18 -26,37 0,21 15,30 47,30l178 0c36,0 55,-8 55,-33 0,-25 -17,-29 -34,-38 -20,-10 -21,-22 -21,-56l0 -112zm689 5l0 -13c0,-90 40,-143 92,-143 32,0 52,21 52,56 0,50 -51,91 -144,100zm4 69c190,-14 285,-64 285,-157 0,-74 -74,-132 -194,-132 -157,0 -256,95 -256,238 0,141 92,229 240,229 135,0 223,-73 223,-118 0,-16 -11,-27 -25,-27 -22,0 -33,16 -52,31 -35,27 -72,40 -110,40 -60,0 -104,-39 -111,-104zm559 -69l0 -13c0,-90 40,-143 92,-143 32,0 52,21 52,56 0,50 -51,91 -144,100zm5 69c190,-14 284,-64 284,-157 0,-74 -73,-132 -194,-132 -156,0 -256,95 -256,238 0,141 92,229 240,229 136,0 223,-73 223,-118 0,-16 -11,-27 -24,-27 -22,0 -34,16 -53,31 -34,27 -72,40 -110,40 -60,0 -104,-39 -110,-104zm565 -219l0 -28c0,-28 -8,-40 -35,-40 -38,0 -90,13 -128,33 -14,6 -21,14 -21,25 0,22 19,21 33,30 17,10 19,29 19,58l0 386c0,20 -1,32 -10,39 -16,12 -34,16 -34,36 0,16 12,27 28,27l176 0c34,0 45,-6 45,-28 0,-18 -12,-24 -31,-35 -17,-11 -18,-18 -18,-44l0 -325c0,-88 15,-131 69,-131 53,0 89,53 89,151 0,104 -34,163 -89,163 -7,0 -14,-2 -23,-2 -16,0 -31,14 -31,29 0,28 32,48 92,48 126,0 213,-90 213,-229 0,-138 -83,-231 -204,-231 -55,0 -104,23 -140,68zm614 150l0 -13c0,-90 40,-143 92,-143 32,0 52,21 52,56 0,50 -51,91 -144,100zm4 69c190,-14 285,-64 285,-157 0,-74 -74,-132 -194,-132 -156,0 -256,95 -256,238 0,141 92,229 240,229 135,0 223,-73 223,-118 0,-16 -11,-27 -25,-27 -22,0 -33,16 -52,31 -34,27 -72,40 -110,40 -60,0 -104,-39 -111,-104zm415 165l196 0c25,0 38,-9 38,-26 0,-21 -15,-24 -40,-35 -12,-4 -16,-15 -16,-33l0 -147c0,-69 15,-104 29,-104 11,0 28,15 53,15 43,0 67,-23 67,-61 0,-39 -28,-64 -71,-64 -49,0 -86,29 -115,87 -1,-65 -11,-89 -55,-89 -68,0 -128,41 -128,63 0,21 26,24 44,40 16,16 17,29 17,49l0 209c0,20 -3,32 -11,35 -21,11 -40,12 -40,37 0,15 11,24 32,24z"/>
  </g>
  <g id="_2169062212096">
   <path class="fil7" d="M13204 53060l5510 0c160,0 291,131 291,292l0 5509c0,160 -131,292 -291,292l-5510 0c-160,0 -291,-132 -291,-292l0 -5509c0,-161 131,-292 291,-292z"/>
   <path class="fil8" d="M16129 54535l37 0c26,0 40,22 47,47l20 77c40,7 79,18 117,31l56 -57c18,-18 42,-30 64,-17l142 82c23,13 24,39 17,64l-20 78c30,26 58,55 84,85l78 -21c25,-7 51,-5 64,17l82 142c13,22 1,46 -17,64l-57 57c14,37 24,76 32,116l76 20c25,7 47,21 47,47l0 164c0,26 -22,40 -47,47l-76 21c-8,40 -19,79 -32,116l57 56c18,18 30,42 17,64l-82 143c-13,22 -39,23 -64,17l-78 -21c-26,30 -55,58 -85,84l21 78c7,25 6,51 -17,64l-142 82c-22,13 -46,1 -64,-17l-56 -56c-38,13 -77,23 -117,31l-20 77c-7,25 -21,47 -47,47l-164 0c-26,0 -40,-22 -47,-47l-21 -77c-40,-8 -79,-18 -116,-32l-56 57c-18,18 -42,30 -64,17l-142 -82c-23,-13 -24,-39 -18,-64l21 -78c-30,-26 -58,-54 -84,-85l-78 22c-25,6 -51,5 -64,-17l-82 -143c-13,-22 -1,-46 17,-64l57 -56c-14,-38 -24,-77 -32,-117l-77 -20c-25,-6 -47,-21 -47,-47l0 -37c45,24 97,38 151,38l330 0c39,204 219,359 434,359l0 0c243,0 441,-199 441,-442l0 0c0,-214 -155,-394 -358,-433l0 -330c0,-55 -14,-106 -38,-151zm240 914l0 0c0,-128 -86,-237 -202,-273l0 38c0,175 -143,318 -318,318l-38 0c36,117 145,202 273,202l0 0c157,0 285,-128 285,-285zm-338 -235l0 -528c0,-101 -82,-183 -182,-183l-197 0 0 255c0,143 -117,259 -259,259l-255 0 0 197c0,100 82,182 182,182l529 0c100,0 182,-82 182,-182zm-515 -456l0 -356c0,-68 -55,-123 -123,-123l-356 0c-68,0 -123,55 -123,123l0 356c0,68 55,123 123,123l356 0c68,0 123,-55 123,-123zm-1810 2478c230,305 345,476 362,498 16,21 32,26 70,26 54,0 61,-18 61,-74l0 -486c0,-34 0,-53 22,-66 17,-10 37,-11 37,-35 0,-23 -13,-36 -37,-36l-138 0c-27,0 -42,12 -42,33 0,28 19,28 45,43 14,7 18,25 18,53l0 326c-113,-171 -211,-302 -288,-396 -30,-38 -42,-59 -89,-59l-148 0c-23,0 -34,10 -34,30 0,30 19,29 43,39 22,10 24,21 24,50l0 423c0,39 0,61 -21,78 -13,11 -51,5 -51,39 0,21 12,30 38,30l157 0c29,0 39,-6 39,-30 0,-26 -20,-26 -42,-34 -25,-11 -26,-26 -26,-61l0 -391zm1003 459l0 27c0,19 10,30 32,30l105 0c31,0 44,-7 44,-25 0,-13 -10,-20 -29,-30 -19,-10 -24,-16 -24,-56l0 -300c0,-28 -16,-40 -51,-40 -89,0 -149,23 -149,48 0,15 13,20 30,29 6,4 10,20 10,44l0 194c0,46 -26,73 -67,73 -54,0 -66,-30 -66,-98l0 -250c0,-28 -17,-40 -52,-40 -92,0 -153,26 -153,47 0,23 28,29 36,38 6,9 9,25 9,50l0 164c0,112 47,165 160,165 69,0 126,-24 165,-70zm487 -182c26,-20 49,-39 67,-56 108,113 152,202 152,218 0,14 -34,15 -34,46 0,17 17,31 46,31l179 0c39,0 58,-10 58,-35 0,-22 -12,-26 -27,-35 -26,-15 -28,-25 -34,-35 -73,-136 -150,-237 -224,-303 99,-99 149,-168 170,-184 30,-24 68,-24 68,-58 0,-26 -20,-39 -62,-39l-127 0c-34,0 -50,13 -50,37 0,12 5,21 16,27 12,7 27,9 27,26 0,17 -71,110 -225,261l0 -217c0,-26 1,-42 16,-53 13,-9 33,-14 33,-43 0,-27 -18,-38 -55,-38l-179 0c-31,0 -48,17 -48,38 0,27 14,32 31,40 23,10 28,21 28,56l0 449c0,23 -7,28 -26,39 -18,11 -26,18 -26,37 0,21 16,30 47,30l179 0c36,0 54,-8 54,-33 0,-25 -16,-29 -33,-38 -20,-10 -21,-22 -21,-56l0 -112zm688 5l0 -13c0,-90 40,-143 93,-143 31,0 51,21 51,56 0,50 -51,91 -144,100zm5 70c190,-15 284,-65 284,-158 0,-73 -73,-132 -194,-132 -156,0 -255,95 -255,238 0,141 91,229 239,229 136,0 223,-72 223,-118 0,-16 -11,-27 -24,-27 -22,0 -34,16 -53,31 -34,27 -71,41 -110,41 -60,0 -104,-40 -110,-104zm558 -70l0 -13c0,-90 40,-143 93,-143 31,0 51,21 51,56 0,50 -50,91 -144,100zm5 70c190,-15 284,-65 284,-158 0,-73 -73,-132 -193,-132 -157,0 -256,95 -256,238 0,141 91,229 239,229 136,0 224,-72 224,-118 0,-16 -12,-27 -25,-27 -22,0 -33,16 -53,31 -34,27 -71,41 -109,41 -60,0 -104,-40 -111,-104zm565 -220l0 -28c0,-28 -8,-40 -34,-40 -38,0 -91,13 -129,33 -13,6 -20,14 -20,25 0,22 18,21 32,30 17,11 19,29 19,58l0 386c0,20 -1,32 -9,39 -16,12 -35,16 -35,36 0,17 12,27 28,27l177 0c33,0 45,-6 45,-28 0,-18 -13,-24 -32,-35 -17,-10 -18,-18 -18,-44l0 -325c0,-88 15,-131 70,-131 52,0 88,53 88,151 0,104 -34,163 -88,163 -8,0 -15,-2 -23,-2 -16,0 -32,14 -32,29 0,28 33,48 93,48 126,0 213,-89 213,-229 0,-138 -83,-231 -205,-231 -55,0 -104,23 -140,68zm614 150l0 -13c0,-90 40,-143 93,-143 31,0 51,21 51,56 0,50 -50,91 -144,100zm5 70c190,-15 284,-65 284,-158 0,-73 -73,-132 -194,-132 -156,0 -255,95 -255,238 0,141 91,229 239,229 136,0 224,-72 224,-118 0,-16 -12,-27 -25,-27 -22,0 -34,16 -53,31 -34,27 -71,41 -110,41 -60,0 -104,-40 -110,-104zm414 164l197 0c25,0 37,-9 37,-26 0,-21 -14,-24 -40,-34 -12,-5 -15,-16 -15,-34l0 -147c0,-69 14,-104 28,-104 12,0 28,15 54,15 43,0 67,-23 67,-61 0,-39 -28,-64 -72,-64 -49,0 -86,29 -115,87 -1,-65 -11,-89 -55,-89 -68,0 -128,41 -128,63 0,21 26,24 44,41 16,15 17,28 17,48l0 209c0,20 -3,32 -10,36 -21,10 -40,11 -40,36 0,15 10,24 31,24z"/>
  </g>
  <g id="_2169062276960">
   <path class="fil0" d="M12858 3363l43 0c29,0 45,25 53,54l23 87c46,8 90,20 132,35l64 -64c21,-21 47,-34 73,-19l161 93c25,14 27,44 19,73l-23 88c34,29 66,62 96,96l88 -24c28,-8 58,-6 72,19l93 162c15,25 2,52 -19,72l-64 64c15,43 27,87 35,132l88 23c28,8 53,24 53,53l0 187c0,29 -25,45 -53,53l-88 23c-8,45 -20,90 -35,132l64 64c21,20 34,47 19,72l-93 162c-14,25 -44,27 -72,19l-89 -24c-29,35 -61,67 -96,96l24 88c8,29 6,59 -19,73l-161 93c-26,15 -52,1 -73,-19l-64 -64c-43,15 -87,27 -132,35l-23 87c-7,29 -24,54 -53,54l-186 0c-30,0 -46,-25 -54,-54l-23 -87c-45,-8 -89,-20 -132,-36l-64 65c-20,21 -47,34 -72,19l-161 -93c-26,-14 -28,-44 -20,-73l24 -88c-35,-29 -67,-62 -96,-96l-88 24c-28,8 -58,6 -73,-19l-93 -162c-15,-25 -1,-52 19,-72l65 -64c-16,-43 -28,-87 -36,-133l-87 -22c-29,-8 -53,-24 -53,-53l0 -43c51,28 109,43 171,43l374 0c44,231 248,407 492,407l0 0c275,0 500,-225 500,-500l0 -1c0,-243 -175,-447 -406,-491l0 -375c0,-61 -16,-120 -44,-171z"/>
   <path class="fil1" d="M13131 4401l0 -1c0,-145 -97,-268 -229,-309l0 43c0,198 -162,360 -361,360l-43 0c41,133 165,230 310,230l0 0c178,0 323,-146 323,-323z"/>
   <path class="fil2" d="M12748 4134l0 -600c0,-113 -93,-206 -207,-206l-224 0 0 289c0,162 -131,293 -293,293l-289 0 0 224c0,113 93,206 207,206l599 0c114,0 207,-93 207,-206z"/>
   <path class="fil0" d="M12163 3617l0 -404c0,-77 -62,-140 -139,-140l-404 0c-77,0 -139,63 -139,140l0 404c0,77 62,139 139,139l404 0c77,0 139,-62 139,-139z"/>
   <path class="fil3" d="M14830 4059c260,346 390,539 410,564 18,24 36,30 79,30 62,0 69,-20 69,-84l0 -551c0,-38 0,-60 25,-75 20,-11 42,-12 42,-40 0,-26 -15,-40 -42,-40l-156 0c-31,0 -47,13 -47,37 0,32 21,32 50,48 16,9 21,30 21,61l0 370c-129,-194 -239,-343 -327,-450 -35,-43 -48,-66 -101,-66l-167 0c-26,0 -39,11 -39,34 0,34 21,32 48,44 25,11 27,24 27,56l0 480c0,44 0,69 -23,89 -14,12 -58,5 -58,44 0,24 13,34 44,34l177 0c33,0 44,-7 44,-34 0,-30 -22,-29 -47,-39 -28,-12 -29,-29 -29,-69l0 -443zm1136 521l0 30c0,22 12,34 37,34l119 0c35,0 50,-8 50,-29 0,-15 -12,-22 -32,-33 -22,-12 -29,-18 -29,-64l0 -340c0,-32 -17,-45 -57,-45 -101,0 -169,26 -169,54 0,17 15,23 34,33 7,5 12,22 12,50l0 220c0,52 -30,82 -76,82 -62,0 -76,-33 -76,-110l0 -284c0,-32 -18,-45 -58,-45 -104,0 -174,29 -174,53 0,26 32,32 40,43 8,10 11,28 11,56l0 186c0,127 53,188 181,188 79,0 143,-27 187,-79zm553 -207c30,-22 56,-44 76,-63 123,127 173,229 173,246 0,16 -39,17 -39,53 0,19 19,35 52,35l203 0c44,0 66,-11 66,-39 0,-26 -14,-30 -31,-40 -30,-18 -32,-28 -38,-40 -84,-154 -170,-268 -255,-344 113,-113 169,-190 193,-209 35,-27 77,-27 77,-65 0,-30 -23,-44 -69,-44l-145 0c-38,0 -57,14 -57,41 0,14 6,24 19,31 13,8 30,10 30,30 0,19 -80,124 -255,296l0 -247c0,-29 1,-47 18,-59 15,-11 38,-16 38,-49 0,-31 -21,-43 -63,-43l-202 0c-36,0 -56,19 -56,42 0,32 17,37 36,46 26,12 32,23 32,63l0 510c0,26 -8,31 -30,44 -20,12 -29,21 -29,42 0,24 17,34 53,34l203 0c41,0 61,-9 61,-37 0,-29 -18,-34 -38,-43 -22,-12 -23,-25 -23,-64l0 -127zm780 5l0 -14c0,-103 46,-162 105,-162 36,0 59,24 59,63 0,57 -58,104 -164,113zm6 79c215,-16 322,-73 322,-178 0,-84 -83,-150 -220,-150 -177,0 -290,108 -290,270 0,160 104,260 272,260 154,0 253,-83 253,-134 0,-18 -13,-31 -28,-31 -25,0 -38,19 -59,36 -39,30 -82,45 -125,45 -68,0 -118,-44 -125,-118zm633 -79l0 -14c0,-103 45,-162 105,-162 36,0 58,24 58,63 0,57 -57,104 -163,113zm5 79c216,-16 323,-73 323,-178 0,-84 -83,-150 -220,-150 -177,0 -290,108 -290,270 0,160 104,260 272,260 154,0 253,-83 253,-134 0,-18 -13,-31 -28,-31 -25,0 -38,19 -60,36 -39,30 -81,45 -124,45 -68,0 -118,-44 -126,-118zm641 -249l0 -31c0,-32 -8,-45 -39,-45 -43,0 -102,14 -146,36 -15,8 -23,17 -23,30 0,25 21,23 37,33 20,12 22,33 22,66l0 438c0,22 -1,36 -11,44 -18,14 -39,18 -39,41 0,18 13,30 32,30l200 0c38,0 51,-6 51,-31 0,-21 -14,-27 -36,-40 -20,-12 -21,-21 -21,-50l0 -369c0,-100 18,-148 79,-148 60,0 101,60 101,171 0,118 -39,185 -101,185 -8,0 -16,-2 -26,-2 -18,0 -35,16 -35,32 0,33 37,55 105,55 143,0 241,-101 241,-259 0,-157 -94,-262 -232,-262 -62,0 -118,26 -159,76zm697 170l0 -14c0,-103 45,-162 105,-162 35,0 58,24 58,63 0,57 -57,104 -163,113zm5 79c215,-16 323,-73 323,-178 0,-84 -84,-150 -220,-150 -178,0 -290,108 -290,270 0,160 104,260 271,260 154,0 254,-83 254,-134 0,-18 -13,-31 -28,-31 -25,0 -38,19 -60,36 -39,30 -81,45 -125,45 -68,0 -118,-44 -125,-118zm470 187l223 0c28,0 42,-10 42,-30 0,-23 -16,-27 -45,-39 -13,-5 -18,-17 -18,-37l0 -167c0,-78 17,-118 33,-118 13,0 31,17 60,17 49,0 76,-26 76,-69 0,-45 -31,-73 -81,-73 -55,0 -97,33 -130,99 -1,-74 -13,-101 -63,-101 -77,0 -145,47 -145,72 0,23 29,27 50,45 18,17 19,33 19,55l0 237c0,23 -3,36 -11,40 -24,12 -46,13 -46,42 0,17 12,27 36,27z"/>
  </g>
  <path class="fil4" d="M13104 33016l43 0c29,0 45,25 53,53l23 87c45,9 90,21 132,36l64 -64c20,-21 47,-34 73,-20l161 93c25,15 27,45 19,73l-23 88c34,30 66,62 96,96l88 -24c28,-7 58,-6 72,20l93 161c15,25 2,52 -19,73l-64 64c15,42 27,86 35,132l88 23c28,7 53,24 53,53l0 186c0,29 -25,46 -53,53l-88 24c-8,45 -20,89 -35,132l64 63c21,21 34,48 19,73l-93 161c-14,25 -44,27 -72,20l-89 -24c-29,34 -61,66 -96,96l24 88c8,28 6,58 -19,73l-161 93c-26,14 -52,1 -73,-20l-64 -64c-43,15 -87,27 -132,36l-23 87c-8,28 -24,53 -53,53l-186 0c-30,0 -46,-25 -54,-53l-23 -87c-45,-9 -90,-21 -132,-36l-64 64c-20,21 -47,34 -72,20l-162 -93c-25,-15 -27,-45 -19,-73l24 -88c-35,-30 -67,-62 -96,-97l-88 24c-29,8 -58,6 -73,-19l-93 -161c-15,-26 -1,-52 19,-73l64 -64c-15,-43 -27,-87 -35,-132l-87 -23c-29,-7 -54,-24 -54,-53l0 -42c51,27 110,43 172,43l374 0c44,231 248,407 492,407l0 0c275,0 500,-226 500,-501l0 0c0,-243 -176,-448 -406,-492l0 -374c0,-62 -16,-120 -44,-171z"/>
  <path class="fil1" d="M13377 34053l0 0c0,-145 -97,-269 -229,-309l0 42c0,199 -162,361 -361,361l-43 0c41,132 164,229 310,229l0 0c177,0 323,-145 323,-323z"/>
  <path class="fil5" d="M12994 33786l0 -599c0,-114 -93,-207 -207,-207l-224 0 0 289c0,162 -131,294 -293,294l-289 0 0 223c0,114 93,207 207,207l599 0c114,0 207,-93 207,-207z"/>
  <path class="fil4" d="M12409 33269l0 -404c0,-77 -62,-139 -139,-139l-404 0c-77,0 -140,62 -140,139l0 404c0,77 63,140 140,140l404 0c77,0 139,-63 139,-140z"/>
  <path class="fil6" d="M15076 33711c260,346 390,540 410,564 18,24 35,31 79,31 62,0 69,-21 69,-85l0 -551c0,-38 0,-59 25,-75 19,-10 42,-11 42,-40 0,-25 -15,-40 -42,-40l-156 0c-31,0 -48,13 -48,37 0,33 22,33 51,49 15,8 21,29 21,60l0 370c-129,-193 -239,-342 -327,-450 -35,-43 -48,-66 -101,-66l-167 0c-26,0 -39,11 -39,34 0,35 21,32 48,44 25,11 27,24 27,57l0 479c0,45 0,70 -23,89 -15,12 -58,6 -58,44 0,24 13,34 43,34l178 0c32,0 44,-7 44,-34 0,-30 -22,-29 -47,-38 -28,-12 -29,-30 -29,-70l0 -443zm1136 521l0 30c0,22 12,34 37,34l119 0c35,0 50,-8 50,-28 0,-15 -12,-23 -33,-34 -21,-12 -28,-18 -28,-64l0 -339c0,-33 -17,-46 -57,-46 -101,0 -169,26 -169,54 0,17 15,23 34,34 7,4 12,21 12,50l0 219c0,52 -30,83 -76,83 -62,0 -76,-34 -76,-111l0 -283c0,-33 -18,-46 -58,-46 -104,0 -174,29 -174,53 0,26 32,33 40,43 8,10 11,29 11,57l0 186c0,127 53,187 181,187 79,0 143,-27 187,-79zm552 -206c31,-23 57,-45 77,-64 123,128 172,229 172,246 0,17 -39,18 -39,53 0,20 20,35 52,35l204 0c44,0 66,-11 66,-39 0,-26 -14,-30 -31,-40 -30,-17 -32,-28 -38,-40 -84,-153 -170,-268 -255,-344 113,-112 169,-190 193,-208 35,-27 77,-27 77,-65 0,-30 -23,-45 -69,-45l-145 0c-38,0 -57,15 -57,41 0,15 6,24 19,32 13,7 30,10 30,29 0,20 -80,124 -256,296l0 -246c0,-29 2,-48 19,-60 15,-10 38,-16 38,-48 0,-32 -21,-44 -63,-44l-202 0c-36,0 -56,19 -56,43 0,31 17,36 36,45 26,12 31,24 31,64l0 509c0,26 -7,31 -29,44 -20,12 -29,21 -29,42 0,24 17,34 53,34l202 0c42,0 62,-9 62,-37 0,-29 -18,-33 -38,-43 -22,-12 -24,-25 -24,-64l0 -126zm781 5l0 -14c0,-103 46,-163 105,-163 36,0 59,24 59,63 0,57 -58,104 -164,114zm5 79c216,-16 323,-74 323,-179 0,-83 -83,-149 -220,-149 -177,0 -290,107 -290,269 0,161 104,260 272,260 154,0 253,-82 253,-134 0,-17 -13,-30 -28,-30 -25,0 -38,18 -59,35 -39,31 -82,46 -125,46 -68,0 -118,-45 -126,-118zm634 -79l0 -14c0,-103 45,-163 105,-163 36,0 58,24 58,63 0,57 -57,104 -163,114zm5 79c216,-16 323,-74 323,-179 0,-83 -83,-149 -220,-149 -177,0 -290,107 -290,269 0,161 104,260 272,260 153,0 253,-82 253,-134 0,-17 -13,-30 -28,-30 -25,0 -38,18 -60,35 -39,31 -81,46 -124,46 -68,0 -118,-45 -126,-118zm641 -249l0 -32c0,-32 -8,-45 -39,-45 -43,0 -103,14 -146,37 -15,7 -23,16 -23,29 0,25 21,24 37,34 20,11 22,32 22,66l0 437c0,23 -1,37 -11,44 -18,14 -39,19 -39,41 0,19 13,31 31,31l201 0c38,0 51,-7 51,-32 0,-20 -14,-27 -36,-40 -20,-12 -21,-20 -21,-49l0 -370c0,-99 18,-148 79,-148 60,0 101,61 101,171 0,118 -39,185 -101,185 -8,0 -16,-2 -26,-2 -18,0 -35,16 -35,33 0,32 36,55 105,55 143,0 241,-102 241,-260 0,-157 -94,-262 -232,-262 -62,0 -118,26 -159,77zm696 170l0 -14c0,-103 46,-163 105,-163 36,0 59,24 59,63 0,57 -58,104 -164,114zm6 79c215,-16 322,-74 322,-179 0,-83 -83,-149 -219,-149 -178,0 -290,107 -290,269 0,161 103,260 271,260 154,0 254,-82 254,-134 0,-17 -13,-30 -29,-30 -24,0 -37,18 -59,35 -39,31 -81,46 -125,46 -68,0 -118,-45 -125,-118zm470 186l223 0c28,0 42,-10 42,-29 0,-24 -16,-27 -45,-39 -13,-6 -18,-18 -18,-38l0 -167c0,-78 16,-118 33,-118 13,0 31,18 60,18 49,0 76,-26 76,-70 0,-44 -31,-72 -81,-72 -55,0 -98,32 -130,98 -1,-73 -13,-100 -63,-100 -77,0 -145,46 -145,71 0,24 29,27 50,45 18,18 19,33 19,56l0 237c0,22 -3,35 -12,40 -23,12 -45,13 -45,41 0,17 12,27 36,27z"/>
  <path class="fil7" d="M2731 61039l43 0c29,0 45,25 53,53l23 87c46,9 90,21 132,36l64 -64c21,-21 47,-35 73,-20l161 93c25,15 27,45 19,73l-23 88c34,30 66,62 96,96l88 -24c28,-8 58,-6 72,20l93 161c15,25 2,52 -19,73l-64 64c15,42 27,86 35,132l88 23c28,7 53,24 53,53l0 186c0,29 -25,45 -53,53l-88 23c-8,46 -20,90 -35,133l64 63c21,21 34,47 19,73l-93 161c-14,25 -44,27 -72,19l-89 -23c-29,34 -61,66 -96,96l24 88c8,28 6,58 -19,72l-161 94c-26,14 -52,1 -73,-20l-64 -64c-43,15 -87,27 -132,36l-23 87c-7,28 -24,53 -53,53l-186 0c-30,0 -46,-25 -54,-53l-23 -88c-45,-8 -89,-20 -132,-35l-64 64c-20,21 -47,34 -72,20l-161 -94c-26,-14 -28,-44 -20,-72l24 -88c-35,-30 -67,-62 -96,-97l-88 24c-28,8 -58,6 -73,-19l-93 -161c-15,-26 -1,-52 19,-73l65 -64c-16,-43 -27,-87 -36,-132l-87 -23c-29,-7 -53,-24 -53,-53l0 -43c51,28 109,44 171,44l374 0c44,231 248,407 492,407l0 0c275,0 500,-226 500,-501l0 0c0,-244 -175,-448 -406,-492l0 -374c0,-62 -16,-120 -44,-171zm273 1037l0 0c0,-145 -97,-269 -229,-309l0 42c0,199 -162,361 -361,361l-43 0c41,132 165,229 310,229l0 0c178,0 323,-145 323,-323zm-383 -267l0 -599c0,-114 -93,-207 -207,-207l-223 0 0 289c0,162 -132,294 -294,294l-289 0 0 223c0,114 93,207 207,207l599 0c114,0 207,-93 207,-207zm-584 -517l0 -404c0,-77 -63,-139 -140,-139l-404 0c-77,0 -139,62 -139,139l0 404c0,77 62,140 139,140l404 0c77,0 140,-63 140,-140zm2666 442c260,346 390,540 410,564 18,24 36,31 79,31 62,0 69,-21 69,-85l0 -551c0,-38 0,-59 25,-75 20,-10 42,-12 42,-40 0,-25 -15,-40 -42,-40l-156 0c-31,0 -47,13 -47,37 0,33 21,33 50,49 16,8 21,29 21,60l0 370c-129,-194 -239,-343 -327,-450 -35,-43 -48,-66 -101,-66l-167 0c-26,0 -39,11 -39,34 0,34 21,32 48,44 25,11 27,24 27,56l0 480c0,45 0,70 -23,89 -14,12 -58,6 -58,44 0,24 13,34 44,34l177 0c33,0 44,-7 44,-34 0,-30 -22,-29 -47,-38 -28,-12 -29,-30 -29,-70l0 -443zm1136 521l0 30c0,22 12,34 37,34l119 0c35,0 50,-8 50,-28 0,-15 -12,-23 -32,-34 -22,-12 -29,-18 -29,-64l0 -340c0,-32 -17,-45 -57,-45 -101,0 -169,26 -169,54 0,17 15,23 34,34 7,4 12,21 12,49l0 220c0,52 -30,82 -76,82 -62,0 -76,-33 -76,-110l0 -284c0,-32 -18,-45 -58,-45 -104,0 -174,29 -174,53 0,26 32,32 40,43 8,10 11,28 11,57l0 186c0,126 53,187 181,187 79,0 143,-27 187,-79zm553 -206c30,-23 56,-45 76,-64 123,128 173,229 173,246 0,17 -39,18 -39,53 0,20 19,35 52,35l203 0c44,0 66,-11 66,-39 0,-26 -14,-30 -31,-40 -30,-17 -32,-28 -38,-40 -84,-154 -170,-268 -255,-344 113,-112 169,-190 193,-208 35,-27 77,-27 77,-65 0,-30 -23,-45 -69,-45l-145 0c-38,0 -57,15 -57,41 0,14 6,24 19,32 13,7 30,10 30,29 0,19 -80,124 -255,296l0 -246c0,-29 1,-48 18,-60 15,-11 38,-16 38,-48 0,-32 -21,-44 -63,-44l-202 0c-36,0 -56,19 -56,42 0,32 17,37 36,46 26,12 32,24 32,64l0 509c0,26 -8,31 -30,44 -20,12 -29,21 -29,42 0,24 17,34 53,34l203 0c41,0 61,-9 61,-37 0,-29 -18,-33 -38,-43 -22,-12 -23,-25 -23,-64l0 -126zm780 5l0 -14c0,-103 46,-163 105,-163 36,0 59,24 59,63 0,57 -58,104 -164,114zm6 79c215,-17 322,-74 322,-179 0,-83 -83,-149 -220,-149 -177,0 -290,107 -290,269 0,160 104,260 272,260 154,0 253,-82 253,-134 0,-17 -13,-30 -28,-30 -25,0 -38,18 -59,35 -39,31 -82,46 -125,46 -68,0 -118,-45 -125,-118zm633 -79l0 -14c0,-103 45,-163 105,-163 36,0 58,24 58,63 0,57 -57,104 -163,114zm5 79c216,-17 323,-74 323,-179 0,-83 -83,-149 -220,-149 -177,0 -290,107 -290,269 0,160 104,260 272,260 154,0 253,-82 253,-134 0,-17 -13,-30 -28,-30 -25,0 -38,18 -60,35 -39,31 -81,46 -124,46 -68,0 -118,-45 -126,-118zm641 -249l0 -32c0,-32 -8,-45 -39,-45 -43,0 -102,14 -146,37 -15,7 -22,16 -22,29 0,25 20,24 36,33 20,12 22,33 22,67l0 437c0,23 -1,37 -11,44 -18,14 -39,19 -39,41 0,19 13,31 32,31l200 0c38,0 51,-7 51,-32 0,-20 -14,-27 -36,-40 -20,-12 -21,-20 -21,-50l0 -369c0,-99 18,-148 79,-148 60,0 101,61 101,171 0,118 -39,185 -101,185 -8,0 -16,-2 -26,-2 -18,0 -35,16 -35,32 0,33 37,56 105,56 143,0 241,-102 241,-260 0,-157 -94,-262 -232,-262 -62,0 -118,26 -159,77zm697 170l0 -14c0,-103 45,-163 105,-163 35,0 58,24 58,63 0,57 -57,104 -163,114zm5 79c215,-17 323,-74 323,-179 0,-83 -84,-149 -220,-149 -178,0 -290,107 -290,269 0,160 104,260 271,260 154,0 254,-82 254,-134 0,-17 -13,-30 -28,-30 -25,0 -38,18 -60,35 -39,31 -81,46 -124,46 -69,0 -118,-45 -126,-118zm470 186l223 0c28,0 42,-10 42,-29 0,-24 -16,-27 -45,-39 -13,-6 -18,-18 -18,-38l0 -167c0,-78 17,-118 33,-118 13,0 31,17 60,17 49,0 76,-26 76,-69 0,-44 -31,-72 -81,-72 -55,0 -97,32 -130,98 -1,-73 -13,-101 -63,-101 -77,0 -145,47 -145,72 0,24 29,27 50,45 18,18 20,33 20,56l0 237c0,22 -4,35 -12,40 -24,12 -46,13 -46,41 0,17 12,27 36,27z"/>
  <g id="_2169062271392">
   <path class="fil0" d="M1977 12962l8955 0c216,0 392,176 392,392l0 3698c0,216 -176,392 -392,392l-8955 0c-215,0 -392,-176 -392,-392l0 -3698c0,-216 177,-392 392,-392z"/>
   <g>
    <path class="fil8" d="M3857 14416l38 0c26,0 40,22 47,47l20 77c40,8 79,18 117,32l56 -57c18,-18 42,-30 64,-17l142 82c22,13 24,39 17,64l-21 78c31,26 59,54 85,84l78 -21c25,-7 51,-5 64,17l82 143c13,22 1,45 -17,64l-57 56c13,38 24,77 32,117l76 20c25,6 47,21 47,47l0 164c0,26 -22,40 -47,47l-77 20c-7,40 -18,79 -31,117l57 56c18,18 30,42 17,64l-82 142c-13,22 -39,24 -64,17l-78 -21c-26,31 -55,59 -85,85l21 78c7,24 5,51 -17,64l-142 82c-22,13 -46,1 -64,-17l-57 -57c-37,13 -76,24 -116,32l-20 76c-7,25 -21,47 -47,47l-164 0c-26,0 -41,-22 -47,-47l-21 -77c-40,-7 -79,-18 -116,-31l-56 57c-18,18 -42,30 -64,17l-143 -82c-22,-13 -23,-39 -17,-64l21 -78c-30,-26 -58,-55 -85,-85l-77 21c-25,7 -51,5 -64,-17l-82 -142c-13,-22 -1,-46 17,-64l56 -56c-13,-38 -23,-77 -31,-117l-77 -20c-25,-7 -47,-21 -47,-47l0 -38c45,25 97,39 151,39l330 0c39,203 219,358 434,358l0 0c243,0 441,-198 441,-441l0 0c0,-215 -155,-395 -358,-434l0 -330c0,-54 -14,-106 -39,-151z"/>
    <path class="fil1" d="M4098 15331l0 0c0,-128 -86,-237 -202,-273l0 38c0,175 -143,318 -318,318l-38 0c36,116 145,202 273,202l0 0c157,0 285,-128 285,-285z"/>
    <path class="fil2" d="M3760 15096l0 -529c0,-100 -82,-182 -182,-182l-197 0 0 255c0,142 -117,258 -259,258l-255 0 0 198c0,100 82,182 182,182l529 0c100,0 182,-82 182,-182z"/>
    <path class="fil8" d="M3245 14640l0 -357c0,-67 -56,-123 -123,-123l-357 0c-67,0 -122,56 -122,123l0 357c0,67 55,123 122,123l357 0c67,0 123,-56 123,-123z"/>
    <path class="fil9" d="M5596 15029c230,305 344,476 361,498 17,21 32,27 70,27 54,0 61,-18 61,-75l0 -486c0,-33 0,-52 22,-66 17,-9 37,-10 37,-35 0,-23 -13,-35 -37,-35l-137 0c-28,0 -42,11 -42,32 0,29 19,29 45,43 13,8 18,26 18,54l0 326c-114,-171 -211,-303 -289,-397 -30,-38 -42,-58 -88,-58l-148 0c-23,0 -35,9 -35,29 0,31 19,29 43,39 22,10 24,21 24,50l0 423c0,39 0,61 -21,79 -12,10 -50,4 -50,39 0,21 11,29 38,29l156 0c29,0 39,-6 39,-29 0,-27 -20,-26 -42,-35 -24,-10 -25,-25 -25,-61l0 -391zm1002 460l0 27c0,19 10,29 32,29l105 0c31,0 44,-7 44,-25 0,-13 -10,-20 -28,-29 -19,-11 -25,-17 -25,-57l0 -299c0,-29 -15,-40 -51,-40 -88,0 -149,22 -149,47 0,16 14,20 30,30 7,4 10,19 10,44l0 194c0,45 -25,72 -66,72 -55,0 -67,-29 -67,-97l0 -250c0,-29 -16,-40 -52,-40 -91,0 -152,25 -152,46 0,23 27,29 35,39 7,8 9,24 9,49l0 164c0,112 47,165 160,165 70,0 126,-23 165,-69zm487 -182c27,-20 50,-39 68,-56 108,112 151,202 151,217 0,14 -34,15 -34,47 0,17 17,30 46,30l179 0c39,0 59,-9 59,-34 0,-23 -13,-27 -28,-35 -26,-16 -28,-25 -34,-36 -73,-135 -149,-236 -224,-303 99,-99 149,-168 170,-184 31,-24 68,-24 68,-57 0,-27 -20,-39 -61,-39l-128 0c-34,0 -50,12 -50,36 0,12 5,21 16,28 12,6 27,8 27,25 0,18 -70,110 -225,262l0 -218c0,-25 1,-42 16,-52 13,-10 34,-14 34,-43 0,-28 -19,-38 -56,-38l-178 0c-32,0 -49,16 -49,37 0,28 14,32 31,40 23,11 28,21 28,56l0 449c0,23 -7,28 -26,39 -18,11 -25,19 -25,38 0,21 15,29 46,29l179 0c36,0 54,-8 54,-32 0,-26 -16,-30 -33,-38 -20,-11 -21,-22 -21,-57l0 -111zm688 4l0 -12c0,-91 40,-143 93,-143 31,0 51,21 51,55 0,51 -50,92 -144,100zm5 70c190,-14 284,-65 284,-158 0,-73 -73,-131 -193,-131 -157,0 -256,94 -256,237 0,142 91,229 239,229 136,0 224,-72 224,-118 0,-15 -12,-27 -25,-27 -22,0 -33,17 -53,32 -34,27 -71,40 -109,40 -60,0 -104,-39 -111,-104zm558 -70l0 -12c0,-91 41,-143 93,-143 32,0 52,21 52,55 0,51 -51,92 -145,100zm5 70c190,-14 285,-65 285,-158 0,-73 -74,-131 -194,-131 -157,0 -256,94 -256,237 0,142 92,229 240,229 135,0 223,-72 223,-118 0,-15 -11,-27 -25,-27 -22,0 -33,17 -52,32 -35,27 -72,40 -110,40 -60,0 -104,-39 -111,-104zm565 -220l0 -27c0,-29 -7,-40 -34,-40 -38,0 -91,12 -129,32 -13,7 -20,14 -20,26 0,22 18,21 33,29 17,11 19,29 19,59l0 385c0,20 -1,33 -10,39 -16,13 -34,17 -34,37 0,16 11,26 27,26l177 0c33,0 45,-5 45,-27 0,-18 -12,-24 -32,-36 -17,-10 -18,-18 -18,-43l0 -326c0,-88 16,-131 70,-131 52,0 89,54 89,151 0,104 -35,163 -89,163 -8,0 -14,-2 -23,-2 -16,0 -31,15 -31,29 0,29 32,49 92,49 126,0 213,-90 213,-229 0,-139 -83,-231 -204,-231 -56,0 -104,23 -141,67zm614 150l0 -12c0,-91 40,-143 93,-143 31,0 51,21 51,55 0,51 -50,92 -144,100zm5 70c190,-14 285,-65 285,-158 0,-73 -74,-131 -194,-131 -157,0 -256,94 -256,237 0,142 92,229 240,229 135,0 223,-72 223,-118 0,-15 -12,-27 -25,-27 -22,0 -33,17 -52,32 -35,27 -72,40 -110,40 -60,0 -104,-39 -111,-104zm414 164l197 0c25,0 37,-8 37,-26 0,-21 -14,-24 -40,-34 -11,-5 -15,-15 -15,-33l0 -147c0,-69 14,-104 29,-104 11,0 27,15 53,15 43,0 67,-23 67,-61 0,-39 -28,-64 -72,-64 -48,0 -86,28 -114,87 -1,-65 -12,-89 -56,-89 -67,0 -128,41 -128,63 0,21 26,24 44,40 17,15 18,29 18,49l0 209c0,20 -3,31 -11,35 -21,10 -40,11 -40,36 0,16 10,24 31,24z"/>
   </g>
  </g>
  <path class="fil4" d="M2223 38011l8955 0c216,0 392,176 392,392l0 3698c0,216 -176,392 -392,392l-8955 0c-215,0 -392,-176 -392,-392l0 -3698c0,-216 177,-392 392,-392z"/>
  <g id="_2169062269440">
   <path class="fil8" d="M4103 39465l38 0c26,0 40,22 47,47l20 77c40,8 79,18 117,32l56 -57c18,-18 42,-30 64,-17l142 82c22,13 24,39 17,64l-21 78c31,26 59,54 85,85l78 -22c24,-6 51,-5 64,18l82 142c13,22 1,46 -17,64l-57 56c13,38 24,77 31,117l77 20c25,6 47,21 47,47l0 164c0,26 -22,40 -47,47l-77 20c-7,40 -18,79 -31,117l57 56c18,18 30,42 17,64l-82 142c-13,23 -40,24 -64,17l-78 -20c-26,30 -55,58 -85,84l21 78c7,25 5,51 -17,64l-142 82c-22,13 -46,1 -64,-17l-57 -57c-37,14 -76,24 -116,32l-20 76c-7,25 -21,47 -47,47l-164 0c-26,0 -41,-22 -47,-47l-21 -76c-40,-8 -79,-19 -117,-32l-55 57c-19,18 -42,30 -65,17l-142 -82c-22,-13 -24,-39 -17,-64l21 -78c-30,-26 -59,-55 -85,-85l-77 21c-25,7 -51,6 -64,-17l-82 -142c-13,-22 -1,-46 17,-64l56 -56c-13,-38 -24,-77 -31,-117l-77 -20c-25,-7 -47,-21 -47,-47l0 -37c45,24 96,38 151,38l330 0c39,203 219,358 434,358l0 0c243,0 441,-198 441,-441l0 0c0,-215 -155,-395 -358,-434l0 -330c0,-54 -14,-106 -39,-151z"/>
   <path class="fil1" d="M4344 40380l0 0c0,-128 -86,-237 -202,-273l0 38c0,175 -143,318 -319,318l-37 0c36,116 145,202 273,202l0 0c156,0 285,-128 285,-285z"/>
   <path class="fil5" d="M4006 40145l0 -529c0,-100 -82,-182 -183,-182l-197 0 0 255c0,142 -116,259 -258,259l-255 0 0 197c0,100 82,182 182,182l528 0c101,0 183,-82 183,-182z"/>
   <path class="fil8" d="M3491 39689l0 -356c0,-68 -56,-123 -123,-123l-357 0c-67,0 -123,55 -123,123l0 356c0,68 56,123 123,123l357 0c67,0 123,-55 123,-123z"/>
   <path class="fil9" d="M5842 40079c230,305 344,475 361,497 17,21 32,27 70,27 54,0 61,-18 61,-74l0 -487c0,-33 0,-52 22,-65 17,-10 37,-11 37,-36 0,-23 -13,-35 -37,-35l-137 0c-28,0 -42,12 -42,33 0,28 19,28 44,42 14,8 19,26 19,54l0 326c-114,-171 -211,-302 -289,-397 -30,-38 -42,-58 -88,-58l-148 0c-23,0 -35,10 -35,30 0,30 19,28 43,39 22,9 24,21 24,49l0 423c0,40 0,62 -21,79 -12,10 -51,4 -51,39 0,21 12,29 39,29l156 0c29,0 39,-5 39,-29 0,-27 -20,-26 -42,-35 -25,-10 -25,-25 -25,-61l0 -390zm1002 459l0 27c0,19 10,29 32,29l105 0c31,0 44,-6 44,-25 0,-13 -10,-20 -28,-29 -20,-11 -25,-16 -25,-56l0 -300c0,-29 -16,-40 -51,-40 -89,0 -149,23 -149,47 0,16 14,20 30,30 7,4 10,19 10,44l0 194c0,46 -25,72 -66,72 -55,0 -67,-29 -67,-97l0 -250c0,-29 -16,-40 -52,-40 -91,0 -153,25 -153,46 0,23 28,29 36,39 6,8 9,24 9,49l0 164c0,112 47,166 160,166 69,0 126,-24 165,-70zm487 -182c27,-20 49,-39 68,-56 107,112 151,202 151,217 0,14 -34,15 -34,47 0,17 17,30 46,30l179 0c39,0 58,-9 58,-34 0,-23 -12,-27 -27,-35 -26,-16 -28,-25 -34,-36 -73,-135 -149,-236 -224,-303 99,-99 149,-167 170,-184 31,-24 68,-24 68,-57 0,-27 -20,-39 -61,-39l-128 0c-34,0 -50,12 -50,36 0,13 5,21 16,28 12,7 27,8 27,26 0,17 -71,109 -225,261l0 -217c0,-26 1,-42 16,-53 13,-10 33,-14 33,-43 0,-27 -18,-38 -55,-38l-178 0c-32,0 -49,16 -49,37 0,28 14,33 31,40 23,11 28,21 28,57l0 448c0,23 -7,28 -26,40 -18,10 -25,18 -25,37 0,21 15,29 46,29l179 0c36,0 54,-7 54,-32 0,-26 -16,-30 -33,-38 -20,-11 -21,-22 -21,-57l0 -111zm688 4l0 -12c0,-91 40,-143 93,-143 31,0 51,21 51,55 0,51 -50,92 -144,100zm5 70c190,-14 284,-65 284,-157 0,-74 -73,-132 -193,-132 -157,0 -256,94 -256,238 0,141 91,229 239,229 136,0 224,-73 224,-119 0,-15 -12,-26 -25,-26 -22,0 -34,16 -53,31 -34,27 -71,40 -109,40 -61,0 -104,-39 -111,-104zm558 -70l0 -12c0,-91 40,-143 93,-143 31,0 51,21 51,55 0,51 -50,92 -144,100zm5 70c190,-14 285,-65 285,-157 0,-74 -74,-132 -194,-132 -157,0 -256,94 -256,238 0,141 92,229 240,229 135,0 223,-73 223,-119 0,-15 -12,-26 -25,-26 -22,0 -33,16 -52,31 -35,27 -72,40 -110,40 -60,0 -104,-39 -111,-104zm565 -219l0 -28c0,-29 -7,-40 -34,-40 -38,0 -91,12 -129,32 -13,7 -20,15 -20,26 0,22 18,21 32,30 18,10 20,28 20,58l0 385c0,20 -1,33 -10,40 -16,12 -34,16 -34,36 0,16 11,27 27,27l177 0c33,0 45,-6 45,-28 0,-18 -13,-24 -32,-35 -17,-11 -18,-19 -18,-44l0 -326c0,-88 15,-131 70,-131 52,0 89,54 89,151 0,104 -35,163 -89,163 -8,0 -14,-1 -23,-1 -16,0 -32,14 -32,28 0,29 33,49 93,49 126,0 213,-90 213,-229 0,-139 -83,-231 -204,-231 -56,0 -104,23 -141,68zm614 149l0 -12c0,-91 40,-143 93,-143 31,0 51,21 51,55 0,51 -50,92 -144,100zm5 70c190,-14 284,-65 284,-157 0,-74 -73,-132 -193,-132 -157,0 -256,94 -256,238 0,141 91,229 239,229 136,0 224,-73 224,-119 0,-15 -12,-26 -25,-26 -22,0 -33,16 -53,31 -34,27 -71,40 -109,40 -60,0 -104,-39 -111,-104zm414 164l197 0c25,0 37,-8 37,-26 0,-21 -14,-23 -40,-34 -11,-5 -15,-15 -15,-33l0 -147c0,-69 14,-104 28,-104 12,0 28,15 54,15 43,0 67,-23 67,-61 0,-39 -28,-64 -72,-64 -49,0 -86,29 -114,87 -1,-65 -12,-89 -56,-89 -68,0 -128,41 -128,63 0,21 26,24 44,40 16,15 17,29 17,49l0 209c0,20 -2,31 -10,35 -21,11 -40,12 -40,36 0,16 10,24 31,24z"/>
  </g>
  <g id="_2169062267296">
   <path class="fil7" d="M11419 59700l8955 0c215,0 392,177 392,392l0 3698c0,216 -177,392 -392,392l-8955 0c-216,0 -392,-176 -392,-392l0 -3698c0,-215 176,-392 392,-392z"/>
   <path class="fil8" d="M13299 61155l38 0c25,0 40,22 46,46l21 77c40,8 79,18 116,32l57 -57c18,-18 41,-30 64,-17l142 82c22,13 24,39 17,64l-21 78c30,26 59,54 85,85l77 -21c25,-7 52,-6 64,17l82 142c13,22 2,46 -17,64l-56 56c13,38 24,77 31,117l77 20c25,7 47,21 47,47l0 164c0,26 -22,40 -47,47l-77 21c-7,40 -18,78 -31,116l56 56c19,18 30,42 17,64l-82 142c-12,23 -39,24 -64,18l-78 -21c-26,30 -54,58 -84,84l21 78c7,25 5,51 -17,64l-142 82c-23,13 -46,1 -64,-17l-57 -57c-38,14 -76,24 -116,32l-21 77c-6,25 -21,47 -46,47l-165 0c-25,0 -40,-22 -47,-47l-20 -77c-40,-8 -79,-18 -117,-32l-56 57c-18,18 -41,30 -64,17l-142 -82c-22,-13 -24,-39 -17,-64l21 -78c-30,-26 -59,-54 -85,-85l-77 21c-25,7 -52,6 -64,-17l-83 -142c-12,-22 -1,-46 18,-64l56 -56c-13,-38 -24,-77 -31,-117l-77 -20c-25,-7 -47,-21 -47,-47l0 -37c45,24 96,38 151,38l330 0c39,203 219,359 433,359l0 0c243,0 442,-199 442,-442l0 0c0,-215 -155,-395 -359,-434l0 -330c0,-54 -14,-106 -38,-150zm241 914l0 0c0,-128 -86,-237 -203,-273l0 38c0,175 -143,318 -318,318l-37 0c35,117 144,202 272,202l0 0c157,0 286,-128 286,-285zm-338 -235l0 -529c0,-100 -82,-182 -183,-182l-197 0 0 255c0,143 -116,259 -258,259l-255 0 0 197c0,100 82,182 182,182l528 0c101,0 183,-82 183,-182zm-516 -456l0 -356c0,-68 -55,-123 -122,-123l-357 0c-67,0 -123,55 -123,123l0 356c0,68 56,123 123,123l357 0c67,0 122,-55 122,-123zm2351 390c230,305 345,475 362,497 16,21 32,27 70,27 54,0 61,-18 61,-74l0 -486c0,-34 0,-53 22,-66 17,-10 37,-11 37,-36 0,-22 -13,-35 -37,-35l-138 0c-27,0 -42,12 -42,33 0,28 19,28 45,42 14,8 18,26 18,54l0 326c-113,-171 -211,-302 -288,-397 -30,-38 -42,-58 -89,-58l-148 0c-23,0 -34,10 -34,30 0,30 19,28 43,39 22,9 24,21 24,49l0 424c0,39 0,61 -21,78 -13,10 -51,5 -51,39 0,21 12,29 38,29l157 0c29,0 39,-5 39,-29 0,-27 -20,-26 -42,-34 -25,-11 -26,-26 -26,-61l0 -391zm1003 459l0 27c0,19 10,29 32,29l105 0c31,0 44,-6 44,-24 0,-14 -10,-20 -29,-30 -19,-11 -24,-16 -24,-56l0 -300c0,-29 -16,-40 -51,-40 -89,0 -149,23 -149,48 0,15 13,20 30,29 6,4 10,19 10,44l0 194c0,46 -26,72 -67,72 -54,0 -66,-29 -66,-97l0 -250c0,-29 -17,-40 -52,-40 -92,0 -153,26 -153,47 0,23 28,28 36,38 6,8 9,25 9,49l0 165c0,111 47,165 160,165 69,0 126,-24 165,-70zm487 -182c26,-20 49,-39 67,-56 108,112 152,202 152,217 0,15 -34,16 -34,47 0,17 17,30 46,30l179 0c39,0 58,-9 58,-34 0,-23 -12,-27 -27,-35 -26,-15 -28,-25 -34,-35 -73,-136 -150,-237 -224,-304 99,-99 149,-167 170,-184 30,-23 68,-23 68,-57 0,-26 -21,-39 -62,-39l-127 0c-34,0 -50,13 -50,36 0,13 5,21 16,28 12,7 27,9 27,26 0,17 -71,109 -225,261l0 -217c0,-26 1,-42 16,-53 13,-9 33,-14 33,-43 0,-27 -18,-38 -55,-38l-179 0c-31,0 -48,16 -48,37 0,28 14,33 31,40 23,11 28,21 28,57l0 449c0,23 -7,27 -26,39 -18,10 -26,18 -26,37 0,21 16,29 47,29l179 0c36,0 54,-7 54,-32 0,-26 -16,-29 -33,-38 -20,-11 -21,-22 -21,-56l0 -112zm688 5l0 -13c0,-91 40,-143 92,-143 32,0 52,21 52,55 0,51 -51,92 -144,101zm5 69c190,-14 284,-65 284,-157 0,-74 -73,-132 -194,-132 -156,0 -255,94 -255,238 0,141 91,229 239,229 136,0 223,-73 223,-119 0,-15 -11,-26 -24,-26 -22,0 -34,16 -53,31 -34,27 -71,40 -110,40 -60,0 -104,-39 -110,-104zm558 -69l0 -13c0,-91 40,-143 93,-143 31,0 51,21 51,55 0,51 -50,92 -144,101zm5 69c190,-14 284,-65 284,-157 0,-74 -73,-132 -193,-132 -157,0 -256,94 -256,238 0,141 91,229 239,229 136,0 224,-73 224,-119 0,-15 -12,-26 -25,-26 -22,0 -33,16 -53,31 -34,27 -71,40 -109,40 -60,0 -104,-39 -111,-104zm565 -219l0 -28c0,-29 -8,-40 -34,-40 -38,0 -91,12 -129,32 -13,7 -20,15 -20,26 0,22 18,21 32,30 17,10 19,28 19,58l0 386c0,20 -1,32 -9,39 -16,12 -35,16 -35,36 0,16 12,27 28,27l177 0c33,0 45,-6 45,-28 0,-18 -13,-24 -32,-35 -17,-11 -18,-18 -18,-44l0 -326c0,-88 15,-130 70,-130 52,0 88,53 88,150 0,104 -34,164 -88,164 -8,0 -15,-2 -23,-2 -16,0 -32,14 -32,28 0,29 33,49 93,49 126,0 213,-90 213,-229 0,-139 -83,-231 -205,-231 -55,0 -104,23 -140,68zm614 150l0 -13c0,-91 40,-143 93,-143 31,0 51,21 51,55 0,51 -50,92 -144,101zm5 69c190,-14 284,-65 284,-157 0,-74 -73,-132 -194,-132 -156,0 -255,94 -255,238 0,141 91,229 239,229 136,0 224,-73 224,-119 0,-15 -12,-26 -25,-26 -22,0 -34,16 -53,31 -34,27 -71,40 -110,40 -60,0 -104,-39 -110,-104zm414 164l197 0c25,0 37,-8 37,-25 0,-21 -14,-24 -40,-35 -12,-5 -15,-15 -15,-33l0 -147c0,-69 14,-104 28,-104 12,0 28,15 54,15 43,0 67,-23 67,-61 0,-39 -28,-64 -72,-64 -49,0 -86,29 -115,87 -1,-65 -11,-89 -55,-89 -68,0 -128,41 -128,63 0,21 26,24 44,40 16,15 17,29 17,49l0 209c0,20 -3,31 -10,35 -21,11 -40,12 -40,37 0,15 10,23 31,23z"/>
  </g>
  <g id="_2169062265856">
   <path class="fil10" d="M9387 20484l-1885 0c-178,0 -324,146 -324,324l0 1886c0,178 146,324 324,324l1885 0c178,0 324,-146 324,-324l0 -1886c0,-178 -146,-324 -324,-324z"/>
   <g>
    <path class="fil8" d="M8587 21101l31 0c21,0 33,18 39,39l17 64c33,6 65,15 96,25l46 -46c15,-15 35,-25 53,-14l117 67c19,11 20,33 15,53l-18 65c25,21 49,45 70,70l64 -18c21,-6 43,-4 53,14l68 118c11,18 1,37 -14,52l-47 47c11,31 20,63 26,96l64 17c20,5 38,17 38,39l0 135c0,22 -18,34 -38,39l-64 17c-6,33 -15,65 -26,96l47 47c15,15 25,34 14,52l-68 118c-10,18 -32,20 -53,14l-64 -17c-22,25 -45,48 -70,70l18 64c5,20 4,42 -15,53l-117 67c-18,11 -38,1 -53,-14l-47 -46c-31,11 -63,19 -96,26l-16 63c-6,21 -18,39 -39,39l-136 0c-21,0 -33,-18 -38,-39l-17 -63c-33,-7 -66,-15 -97,-26l-46 46c-15,15 -34,25 -53,14l-117 -67c-19,-11 -20,-33 -14,-53l17 -64c-25,-22 -49,-46 -70,-71l-64 18c-21,6 -42,4 -53,-14l-68 -118c-11,-18 -1,-37 14,-52l47 -47c-11,-31 -20,-63 -26,-96l-63 -17c-21,-5 -39,-17 -39,-39l0 -31c37,21 79,32 124,32l273 0c32,168 181,296 358,296l0 0c201,0 365,-164 365,-364l0 0c0,-178 -128,-326 -296,-359l0 -272c0,-45 -12,-88 -32,-125z"/>
    <path class="fil1" d="M8786 21857l0 0c0,-106 -71,-196 -167,-226l0 31c0,145 -118,263 -263,263l-31 0c29,96 119,167 225,167l0 0c130,0 236,-106 236,-235z"/>
    <path class="fil2" d="M8506 21662l0 -436c0,-83 -67,-151 -150,-151l-163 0 0 211c0,118 -96,214 -214,214l-210 0 0 162c0,83 68,151 150,151l437 0c83,0 150,-68 150,-151z"/>
    <path class="fil8" d="M8081 21286l0 -294c0,-56 -46,-102 -102,-102l-294 0c-56,0 -101,46 -101,102l0 294c0,56 45,101 101,101l294 0c56,0 102,-45 102,-101z"/>
   </g>
  </g>
  <g id="_2169062264576">
   <path class="fil7" d="M13979 44823l-1885 0c-179,0 -324,146 -324,324l0 1885c0,179 145,324 324,324l1885 0c178,0 324,-145 324,-324l0 -1885c0,-178 -146,-324 -324,-324z"/>
   <g>
    <path class="fil8" d="M13179 45440l31 0c21,0 33,18 38,39l17 63c33,7 65,15 97,26l46 -46c15,-15 34,-25 53,-15l117 68c19,11 20,33 14,53l-17 64c25,22 48,45 70,70l64 -17c21,-6 42,-4 53,14l68 117c10,19 1,38 -14,53l-47 47c11,31 20,63 26,96l63 17c21,5 39,17 39,39l0 135c0,21 -18,33 -39,39l-63 17c-6,33 -15,65 -26,96l47 46c15,15 24,35 14,53l-68 118c-11,18 -32,19 -53,14l-64 -17c-22,25 -45,48 -70,70l17 64c6,20 5,42 -14,53l-117 67c-19,11 -38,1 -53,-14l-47 -46c-31,11 -63,19 -96,25l-17 64c-5,21 -17,39 -38,39l-136 0c-21,0 -33,-18 -39,-39l-17 -64c-33,-6 -65,-15 -96,-26l-46 47c-15,15 -35,25 -53,14l-117 -67c-19,-11 -20,-33 -15,-53l18 -65c-25,-21 -49,-45 -70,-70l-64 18c-21,6 -43,4 -53,-14l-68 -118c-11,-18 -1,-38 14,-53l47 -46c-11,-31 -20,-63 -26,-97l-64 -16c-20,-5 -38,-18 -38,-39l0 -31c37,20 79,32 124,32l273 0c32,168 181,296 358,296l0 0c200,0 364,-164 364,-365l0 0c0,-177 -128,-325 -296,-358l0 -272c0,-45 -11,-88 -31,-125z"/>
    <path class="fil1" d="M13377 46195l0 0c0,-105 -70,-195 -167,-225l0 31c0,145 -118,263 -262,263l-31 0c29,96 119,167 225,167l0 0c129,0 235,-106 235,-236z"/>
    <path class="fil1" d="M13098 46001l0 -436c0,-83 -68,-151 -150,-151l-163 0 0 211c0,118 -96,213 -214,213l-210 0 0 163c0,83 67,151 150,151l437 0c82,0 150,-68 150,-151z"/>
    <path class="fil8" d="M12673 45625l0 -295c0,-55 -46,-101 -102,-101l-294 0c-56,0 -102,46 -102,101l0 295c0,56 46,101 102,101l294 0c56,0 102,-45 102,-101z"/>
   </g>
  </g>
  <path class="fil4" d="M12628 66610l31 0c21,0 33,18 39,39l17 63c33,7 65,15 96,26l46 -46c15,-15 35,-25 53,-14l118 67c18,11 19,33 14,53l-17 65c25,21 48,45 70,69l64 -17c20,-6 42,-4 53,14l67 118c11,18 1,37 -14,52l-46 47c10,31 19,63 25,96l64 17c20,5 39,17 39,39l0 135c0,22 -19,33 -39,39l-64 17c-6,33 -15,65 -26,96l47 47c15,14 25,34 14,52l-67 118c-11,18 -33,20 -53,14l-65 -17c-21,25 -45,48 -70,70l18 64c5,20 4,42 -14,53l-118 67c-18,11 -38,1 -53,-14l-46 -46c-31,11 -63,19 -96,26l-17 63c-6,21 -18,39 -39,39l-135 0c-22,0 -34,-18 -39,-39l-17 -64c-33,-6 -65,-15 -96,-26l-47 47c-15,15 -34,25 -53,14l-117 -67c-18,-11 -20,-33 -14,-53l17 -64c-25,-22 -48,-46 -70,-71l-64 18c-20,6 -42,4 -53,-14l-68 -118c-10,-18 0,-37 15,-52l46 -47c-11,-31 -19,-63 -26,-96l-63 -17c-21,-5 -39,-17 -39,-39l0 -31c37,20 80,32 125,32l272 0c33,168 181,296 358,296l0 0c201,0 365,-164 365,-364l0 -1c0,-177 -128,-325 -296,-358l0 -272c0,-45 -12,-88 -32,-125zm199 756l0 -1c0,-105 -71,-195 -167,-225l0 31c0,145 -118,263 -263,263l-31 0c30,96 120,167 225,167l0 0c130,0 236,-106 236,-235zm-279 -195l0 -436c0,-83 -68,-151 -151,-151l-163 0 0 211c0,118 -96,214 -213,214l-211 0 0 162c0,83 68,151 151,151l436 0c83,0 151,-68 151,-151zm-426 -376l0 -294c0,-56 -45,-102 -101,-102l-295 0c-55,0 -101,46 -101,102l0 294c0,56 46,101 101,101l295 0c56,0 101,-45 101,-101zm1306 -802l-1885 0c-178,0 -324,146 -324,324l0 1885c0,179 146,324 324,324l1885 0c179,0 324,-145 324,-324l0 -1885c0,-178 -145,-324 -324,-324z"/>
  <g id="_2169062261312">
   <path class="fil0" d="M4026 20299l1837 0c284,0 517,232 517,517l0 1837c0,284 -233,516 -517,516l-1837 0c-284,0 -516,-232 -516,-516l0 -1837c0,-285 232,-517 516,-517z"/>
   <path class="fil11" d="M4002 20468l1885 0c179,0 324,145 324,324l0 1885c0,178 -145,324 -324,324l-1885 0c-178,0 -324,-146 -324,-324l0 -1885c0,-179 146,-324 324,-324z"/>
   <g>
    <path class="fil0" d="M5106 20997l35 0c25,0 38,21 44,44l20 72c37,8 73,17 109,30l52 -53c17,-17 39,-28 60,-16l133 77c21,12 23,36 16,60l-19 73c28,24 55,51 79,79l73 -20c23,-6 48,-5 60,16l77 133c12,21 1,43 -16,60l-53 53c12,35 22,72 29,109l72 19c23,6 44,20 44,44l0 154c0,24 -21,38 -44,44l-72 19c-7,37 -17,74 -29,109l53 53c17,17 28,39 16,60l-77 133c-12,21 -37,22 -60,16l-73 -20c-25,29 -51,55 -79,80l19 72c7,24 5,48 -16,60l-133 77c-21,12 -43,1 -60,-16l-53 -53c-35,13 -71,23 -109,30l-19 72c-6,23 -19,43 -44,43l-153 0c-24,0 -38,-20 -44,-43l-20 -72c-37,-8 -73,-17 -109,-30l-52 53c-17,17 -39,28 -60,16l-133 -77c-21,-12 -23,-36 -16,-60l19 -73c-28,-24 -55,-51 -79,-79l-73 20c-23,6 -48,5 -60,-16l-77 -133c-12,-21 -1,-43 16,-60l53 -53c-12,-35 -22,-72 -29,-109l-72 -19c-23,-6 -44,-20 -44,-44l0 -35c42,23 90,36 141,36l309 0c37,190 206,336 407,336l0 0c227,0 413,-187 413,-414l0 0c0,-201 -145,-370 -336,-406l0 -309c0,-51 -13,-99 -36,-142z"/>
    <path class="fil1" d="M5332 21854l0 0c0,-120 -81,-222 -190,-255l0 35c0,164 -134,298 -298,298l-35 0c34,109 136,189 256,189l0 0c146,0 267,-120 267,-267z"/>
    <path class="fil2" d="M5015 21634l0 -495c0,-94 -77,-171 -171,-171l-184 0 0 239c0,133 -109,242 -243,242l-238 0 0 185c0,94 76,170 170,170l495 0c94,0 171,-76 171,-170z"/>
    <path class="fil0" d="M4533 21207l0 -334c0,-63 -52,-115 -116,-115l-333 0c-64,0 -116,52 -116,115l0 334c0,63 52,115 116,115l333 0c64,0 116,-52 116,-115z"/>
   </g>
  </g>
  <g id="_2169062259264">
   <path class="fil7" d="M8618 44638l1837 0c284,0 517,232 517,516l0 1838c0,284 -233,516 -517,516l-1837 0c-284,0 -517,-232 -517,-516l0 -1838c0,-284 233,-516 517,-516z"/>
   <path class="fil11" d="M8594 44806l1885 0c178,0 324,146 324,324l0 1886c0,178 -146,324 -324,324l-1885 0c-178,0 -324,-146 -324,-324l0 -1886c0,-178 146,-324 324,-324z"/>
   <g>
    <path class="fil7" d="M9698 45336l35 0c24,0 38,21 44,44l19 72c38,7 74,17 109,30l53 -53c17,-17 39,-28 60,-16l133 77c21,12 22,36 16,60l-19 72c28,25 55,51 79,80l73 -20c23,-6 48,-5 60,16l77 133c12,21 1,43 -17,60l-52 53c12,35 22,72 29,109l72 19c23,6 44,20 44,44l0 154c0,24 -21,37 -44,44l-72 19c-7,37 -17,74 -30,109l53 53c18,17 29,39 17,60l-77 133c-12,21 -37,22 -60,16l-73 -20c-25,29 -51,55 -80,80l20 72c7,23 5,48 -16,60l-133 77c-21,12 -43,1 -60,-16l-53 -53c-35,13 -72,22 -109,29l-19 72c-6,24 -20,44 -44,44l-154 0c-24,0 -37,-20 -43,-44l-20 -72c-37,-7 -74,-17 -109,-29l-52 53c-17,17 -39,28 -60,16l-134 -77c-20,-12 -22,-37 -16,-60l20 -73c-28,-24 -55,-51 -79,-79l-73 20c-23,6 -48,5 -60,-16l-77 -133c-12,-21 -1,-43 16,-60l53 -53c-12,-36 -22,-72 -29,-110l-72 -18c-24,-6 -44,-20 -44,-44l0 -35c42,22 90,35 141,35l309 0c37,191 205,336 406,336l0 0c228,0 414,-186 414,-413l0 0c0,-201 -145,-370 -336,-406l0 -309c0,-51 -13,-100 -36,-142z"/>
    <path class="fil1" d="M9923 46193l0 0c0,-120 -80,-222 -189,-256l0 36c0,164 -134,297 -298,297l-35 0c33,110 135,190 255,190l0 0c147,0 267,-120 267,-267z"/>
    <path class="fil1" d="M9607 45973l0 -495c0,-94 -77,-171 -171,-171l-185 0 0 239c0,133 -108,242 -242,242l-239 0 0 185c0,93 77,170 171,170l495 0c94,0 171,-77 171,-170z"/>
    <path class="fil7" d="M9124 45546l0 -334c0,-63 -52,-115 -115,-115l-334 0c-63,0 -115,52 -115,115l0 334c0,63 52,115 115,115l334 0c63,0 115,-52 115,-115z"/>
   </g>
  </g>
  <path class="fil4" d="M9148 66506l35 0c24,0 37,21 44,44l19 72c37,7 74,17 109,30l53 -53c16,-17 39,-28 60,-16l133 77c21,12 22,36 16,60l-20 73c29,24 55,51 79,79l73 -20c23,-6 48,-5 60,16l77 133c12,21 1,43 -16,60l-53 53c12,35 22,72 29,109l72 19c24,6 44,20 44,44l0 154c0,24 -20,37 -44,44l-72 19c-7,37 -17,74 -29,109l53 53c17,17 28,39 16,60l-77 133c-12,21 -37,22 -60,16l-73 -20c-24,29 -51,55 -79,80l20 72c6,24 5,48 -16,60l-133 77c-21,12 -43,1 -60,-16l-53 -53c-36,13 -72,22 -109,30l-19 72c-6,23 -20,43 -44,43l-154 0c-24,0 -38,-20 -44,-43l-19 -73c-38,-7 -74,-17 -109,-29l-53 53c-17,17 -39,28 -60,16l-133 -77c-21,-12 -22,-36 -16,-60l20 -73c-29,-24 -55,-51 -80,-79l-72 20c-24,6 -48,5 -60,-16l-77 -133c-12,-21 -1,-43 16,-60l53 -53c-13,-35 -23,-72 -30,-109l-72 -19c-23,-6 -44,-20 -44,-44l0 -35c42,23 91,36 142,36l309 0c36,190 205,335 406,335l0 0c227,0 413,-186 413,-413l0 0c0,-201 -145,-370 -336,-406l0 -309c0,-51 -13,-100 -35,-142zm225 857l0 0c0,-120 -80,-222 -190,-255l0 35c0,164 -133,298 -297,298l-36 0c34,109 136,189 256,189l0 0c147,0 267,-120 267,-267zm-317 -220l0 -495c0,-94 -77,-171 -170,-171l-185 0 0 239c0,133 -109,242 -242,242l-239 0 0 185c0,94 77,170 171,170l495 0c93,0 170,-76 170,-170zm-482 -427l0 -334c0,-63 -52,-115 -115,-115l-334 0c-63,0 -115,52 -115,115l0 334c0,63 52,115 115,115l334 0c63,0 115,-52 115,-115zm-507 -908l1838 0c284,0 516,232 516,516l0 1838c0,284 -232,516 -516,516l-1838 0c-284,0 -516,-232 -516,-516l0 -1838c0,-284 232,-516 516,-516zm-24 169l1886 0c178,0 324,145 324,324l0 1885c0,178 -146,324 -324,324l-1886 0c-178,0 -324,-146 -324,-324l0 -1885c0,-179 146,-324 324,-324z"/>
  <polygon class="fil0" points="5089,25260 8787,25260 8787,26839 5089,26839 "/>
  <polygon class="fil2" points="8982,25260 12680,25260 12680,26839 8982,26839 "/>
  <polygon class="fil1" points="12875,25260 16573,25260 16573,26839 12875,26839 "/>
  <path class="fil9" d="M5379 25865l0 -173 74 0c18,0 32,2 40,5 9,3 15,8 20,16 5,8 8,17 8,28 0,13 -4,23 -11,32 -8,8 -19,13 -35,16 8,4 14,9 19,14 5,5 12,15 20,28l21 34 -42 0 -25 -38c-9,-13 -15,-22 -18,-25 -4,-4 -7,-6 -11,-7 -4,-2 -9,-2 -17,-2l-8 0 0 72 -35 0zm35 -100l26 0c17,0 27,0 32,-2 4,-1 7,-4 9,-7 3,-4 4,-8 4,-13 0,-6 -2,-11 -5,-14 -3,-4 -7,-6 -13,-7 -3,-1 -11,-1 -25,-1l-28 0 0 44zm146 8l0 -33 33 0 0 33 -33 0zm0 92l0 -33 33 0 0 33 -33 0zm162 -94c-8,-3 -14,-8 -18,-14 -4,-7 -6,-14 -6,-21 0,-13 5,-24 13,-32 9,-9 22,-13 39,-13 16,0 29,4 38,13 9,8 14,19 14,32 0,8 -2,15 -7,21 -4,6 -10,11 -17,14 9,4 17,10 22,17 5,8 7,16 7,26 0,16 -5,29 -15,39 -10,10 -24,15 -41,15 -15,0 -28,-4 -39,-12 -12,-10 -18,-23 -18,-41 0,-9 2,-17 7,-25 4,-8 12,-14 21,-19zm7 -33c0,7 2,12 6,16 4,3 9,5 15,5 6,0 11,-2 15,-5 4,-4 5,-9 5,-16 0,-6 -1,-11 -5,-15 -4,-4 -9,-6 -15,-6 -6,0 -11,2 -15,6 -4,4 -6,9 -6,15zm-3 74c0,10 3,17 7,22 5,5 11,8 18,8 7,0 12,-3 17,-8 4,-5 6,-12 6,-21 0,-8 -2,-15 -6,-20 -5,-5 -11,-7 -18,-7 -8,0 -14,2 -18,8 -4,6 -6,12 -6,18zm214 22l0 31 -116 0c1,-12 5,-23 11,-33 7,-11 19,-24 38,-42 15,-14 24,-23 27,-28 5,-7 7,-14 7,-20 0,-8 -2,-13 -6,-17 -4,-4 -9,-6 -16,-6 -7,0 -13,2 -17,6 -4,4 -6,11 -7,21l-33 -4c2,-18 8,-31 19,-39 10,-8 23,-12 38,-12 18,0 31,5 41,14 9,9 14,21 14,34 0,8 -1,16 -4,23 -3,7 -7,14 -13,22 -4,5 -11,12 -22,22 -10,10 -17,16 -20,19 -3,3 -5,6 -7,9l66 0zm-480 237l0 -29 75 0 0 69c-7,7 -18,13 -32,19 -14,5 -28,8 -42,8 -18,0 -34,-4 -47,-11 -14,-8 -24,-19 -30,-33 -7,-14 -11,-30 -11,-46 0,-18 4,-34 12,-48 7,-14 18,-25 33,-33 11,-5 25,-8 41,-8 22,0 38,4 51,13 12,9 19,22 23,38l-35 6c-2,-8 -7,-15 -14,-20 -6,-5 -15,-7 -25,-7 -15,0 -27,5 -36,14 -9,10 -14,24 -14,43 0,21 5,36 14,47 9,10 21,15 36,15 7,0 14,-1 22,-4 7,-3 13,-7 19,-11l0 -22 -40 0zm113 -28l0 -33 33 0 0 33 -33 0zm0 92l0 -33 33 0 0 33 -33 0zm219 0l-33 0 0 -125c-12,11 -26,19 -43,25l0 -30c9,-3 18,-9 28,-16 11,-8 17,-18 21,-28l27 0 0 174zm106 -174c17,0 30,6 39,18 11,14 17,38 17,71 0,32 -6,56 -17,70 -9,12 -22,18 -39,18 -17,0 -31,-6 -41,-19 -10,-13 -15,-37 -15,-70 0,-32 5,-56 17,-70 9,-12 22,-18 39,-18zm0 27c-4,0 -8,2 -11,4 -3,3 -5,7 -7,14 -2,9 -3,23 -3,44 0,20 1,34 3,41 2,8 4,13 7,16 3,2 7,3 11,3 4,0 7,-1 10,-3 3,-3 6,-8 8,-14 2,-9 3,-23 3,-43 0,-21 -1,-35 -3,-42 -2,-8 -5,-13 -8,-16 -3,-2 -6,-4 -10,-4zm163 147l-33 0 0 -125c-12,11 -27,19 -43,25l0 -30c9,-3 18,-9 28,-16 10,-8 17,-18 21,-28l27 0 0 174zm-682 97l70 0c13,0 23,0 30,1 7,2 13,4 18,8 6,3 10,8 14,14 3,6 5,13 5,20 0,8 -2,16 -7,22 -4,7 -10,12 -17,16 10,3 18,8 24,15 6,8 8,16 8,26 0,8 -1,16 -5,23 -4,8 -9,14 -15,18 -6,5 -14,8 -24,9 -5,0 -19,1 -42,1l-59 0 0 -173zm35 29l0 39 23 0c14,0 22,0 26,0 6,-1 10,-3 14,-6 3,-4 5,-8 5,-14 0,-5 -2,-10 -5,-13 -3,-3 -7,-5 -13,-6 -3,0 -13,0 -30,0l-20 0zm0 68l0 46 33 0c12,0 20,0 24,-1 5,-1 9,-3 12,-6 4,-4 5,-9 5,-15 0,-5 -1,-10 -3,-13 -3,-4 -7,-7 -11,-8 -5,-2 -15,-3 -31,-3l-29 0zm146 -17l0 -33 33 0 0 33 -33 0zm0 93l0 -33 33 0 0 33 -33 0zm219 0l-33 0 0 -125c-12,11 -27,19 -43,25l0 -30c8,-3 18,-9 28,-17 10,-7 17,-17 21,-27l27 0 0 174zm114 0l0 -35 -70 0 0 -29 74 -110 28 0 0 110 22 0 0 29 -22 0 0 35 -32 0zm0 -64l0 -59 -39 59 39 0zm126 -110c16,0 30,6 39,18 11,14 17,38 17,70 0,33 -6,57 -17,71 -9,12 -23,18 -39,18 -17,0 -31,-7 -41,-20 -10,-13 -15,-36 -15,-69 0,-33 5,-56 17,-70 9,-12 22,-18 39,-18zm0 27c-4,0 -8,2 -11,4 -3,3 -5,7 -7,14 -2,9 -3,23 -3,43 0,21 1,35 3,42 2,8 4,13 7,16 3,2 7,3 11,3 4,0 7,-1 10,-4 3,-2 6,-7 7,-13 3,-9 4,-23 4,-44 0,-20 -1,-34 -3,-42 -2,-7 -5,-12 -8,-15 -3,-2 -6,-4 -10,-4z"/>
  <path class="fil9" d="M9272 25865l0 -173 74 0c18,0 32,2 40,5 9,3 15,8 20,16 5,8 8,17 8,28 0,13 -4,23 -12,32 -7,8 -19,13 -34,16 8,4 14,9 19,14 5,5 11,15 20,28l21 34 -42 0 -25 -38c-9,-13 -15,-22 -18,-25 -4,-4 -7,-6 -11,-7 -4,-2 -10,-2 -18,-2l-7 0 0 72 -35 0zm35 -100l26 0c17,0 27,0 32,-2 4,-1 7,-4 9,-7 3,-4 4,-8 4,-13 0,-6 -2,-11 -5,-14 -3,-4 -7,-6 -13,-7 -3,-1 -11,-1 -25,-1l-28 0 0 44zm146 8l0 -33 33 0 0 33 -33 0zm0 92l0 -33 33 0 0 33 -33 0zm219 0l-34 0 0 -125c-12,11 -26,20 -42,25l0 -30c8,-3 18,-8 28,-16 10,-8 17,-17 21,-28l27 0 0 174zm121 0l-33 0 0 -125c-13,11 -27,20 -43,25l0 -30c8,-3 18,-8 28,-16 10,-8 17,-17 21,-28l27 0 0 174zm48 -46l32 -4c1,8 4,15 9,19 4,4 9,7 16,7 7,0 12,-3 17,-8 5,-5 7,-12 7,-21 0,-9 -2,-15 -7,-20 -4,-5 -10,-7 -16,-7 -4,0 -9,0 -15,2l3 -27c9,0 16,-2 21,-6 5,-4 7,-9 7,-16 0,-6 -2,-11 -5,-14 -4,-4 -8,-5 -14,-5 -6,0 -11,2 -15,6 -4,3 -6,9 -7,17l-30 -5c2,-11 5,-19 9,-26 4,-6 10,-11 18,-15 8,-3 16,-5 26,-5 16,0 29,5 39,16 8,8 12,18 12,29 0,15 -8,27 -25,36 10,2 18,7 24,14 6,8 9,17 9,27 0,15 -6,28 -17,39 -11,11 -25,16 -41,16 -16,0 -29,-4 -39,-13 -10,-9 -16,-21 -18,-36zm-488 252l0 -29 75 0 0 69c-7,7 -18,13 -32,19 -14,5 -28,8 -42,8 -18,0 -34,-4 -47,-11 -14,-8 -24,-19 -31,-33 -6,-14 -10,-30 -10,-46 0,-18 4,-34 12,-48 7,-14 18,-25 33,-33 11,-5 25,-8 41,-8 22,0 38,4 50,13 12,9 20,22 24,38l-35 6c-3,-8 -7,-15 -14,-20 -7,-5 -15,-7 -25,-7 -15,0 -27,5 -36,14 -9,10 -14,24 -14,43 0,21 5,36 14,47 9,10 21,15 36,15 7,0 14,-1 22,-4 7,-3 13,-7 19,-11l0 -22 -40 0zm113 -28l0 -33 33 0 0 33 -33 0zm0 92l0 -33 33 0 0 33 -33 0zm219 0l-33 0 0 -125c-12,11 -26,19 -43,25l0 -30c9,-3 18,-9 28,-16 10,-8 17,-18 21,-28l27 0 0 174zm115 0l0 -35 -71 0 0 -29 75 -110 28 0 0 110 21 0 0 29 -21 0 0 35 -32 0zm0 -64l0 -59 -40 59 40 0zm68 18l32 -4c1,8 4,15 8,19 5,4 10,6 16,6 7,0 13,-2 18,-7 4,-6 7,-13 7,-21 0,-9 -3,-15 -7,-20 -5,-5 -10,-8 -16,-8 -5,0 -10,1 -16,3l4 -27c9,0 16,-2 21,-6 4,-4 7,-9 7,-16 0,-6 -2,-11 -6,-14 -3,-4 -8,-6 -13,-6 -6,0 -11,2 -15,6 -4,4 -6,10 -7,18l-31 -6c3,-10 6,-18 10,-25 4,-6 10,-11 18,-15 8,-3 16,-5 26,-5 16,0 29,5 39,16 8,8 12,18 12,29 0,15 -8,27 -25,36 10,2 18,7 24,14 6,8 9,17 9,27 0,15 -6,28 -17,39 -11,11 -25,16 -41,16 -16,0 -29,-5 -39,-14 -10,-9 -16,-20 -18,-35zm-596 143l69 0c14,0 24,0 31,1 7,2 13,4 18,8 5,3 10,8 13,14 4,6 6,13 6,20 0,8 -2,16 -7,22 -4,7 -10,12 -17,16 10,3 18,8 24,15 5,8 8,16 8,26 0,8 -2,16 -5,23 -4,8 -9,14 -15,18 -7,5 -14,8 -24,9 -6,0 -20,1 -42,1l-59 0 0 -173zm35 29l0 39 23 0c14,0 22,0 26,0 5,-1 10,-3 14,-6 3,-4 5,-8 5,-14 0,-5 -2,-10 -5,-13 -3,-3 -7,-5 -13,-6 -3,0 -13,0 -30,0l-20 0zm0 68l0 46 33 0c12,0 20,0 24,-1 5,-1 9,-3 12,-6 4,-4 5,-9 5,-15 0,-5 -1,-10 -4,-13 -2,-4 -6,-7 -10,-8 -5,-2 -16,-3 -31,-3l-29 0zm146 -17l0 -33 33 0 0 33 -33 0zm0 93l0 -33 33 0 0 33 -33 0zm246 -31l0 31 -116 0c1,-12 5,-23 11,-33 6,-11 19,-25 37,-42 15,-14 24,-23 28,-28 4,-7 7,-14 7,-21 0,-7 -2,-13 -6,-17 -4,-4 -10,-6 -17,-6 -7,0 -12,2 -16,7 -4,4 -7,11 -7,20l-33 -3c2,-18 8,-31 18,-39 10,-8 23,-12 39,-12 17,0 30,4 40,14 10,9 15,20 15,34 0,8 -2,15 -4,22 -3,7 -8,15 -14,23 -4,5 -11,12 -21,22 -11,9 -17,16 -20,19 -3,3 -5,6 -7,9l66 0zm78 -143c17,0 30,6 40,18 11,14 16,38 16,70 0,33 -5,57 -17,71 -9,12 -22,18 -39,18 -17,0 -30,-7 -40,-20 -11,-13 -16,-36 -16,-69 0,-33 6,-56 17,-70 9,-12 23,-18 39,-18zm0 27c-4,0 -7,2 -10,4 -3,3 -6,7 -7,14 -3,9 -4,23 -4,43 0,21 1,35 3,42 2,8 5,13 8,16 3,2 6,3 10,3 4,0 8,-1 11,-4 3,-2 5,-7 7,-13 2,-9 3,-23 3,-44 0,-20 -1,-34 -3,-42 -2,-7 -4,-12 -7,-15 -3,-2 -7,-4 -11,-4zm135 -27c16,0 29,6 39,18 11,14 17,38 17,70 0,33 -6,57 -17,71 -10,12 -23,18 -39,18 -17,0 -31,-7 -41,-20 -10,-13 -16,-36 -16,-69 0,-33 6,-56 17,-70 10,-12 23,-18 40,-18zm0 27c-4,0 -8,2 -11,4 -3,3 -5,7 -7,14 -2,9 -4,23 -4,43 0,21 2,35 4,42 2,8 4,13 7,16 3,2 7,3 11,3 4,0 7,-1 10,-4 3,-2 6,-7 7,-13 3,-9 4,-23 4,-44 0,-20 -1,-34 -3,-42 -2,-7 -5,-12 -8,-15 -3,-2 -6,-4 -10,-4z"/>
  <path class="fil9" d="M13165 25865l0 -173 74 0c18,0 32,2 40,5 8,3 15,8 20,16 5,8 8,17 8,28 0,13 -4,23 -12,32 -7,8 -19,13 -34,16 8,4 14,9 19,14 5,5 11,15 20,28l21 34 -42 0 -25 -38c-9,-13 -15,-22 -19,-25 -3,-4 -6,-6 -10,-7 -4,-2 -10,-2 -18,-2l-7 0 0 72 -35 0zm35 -100l26 0c17,0 27,0 31,-2 5,-1 8,-4 10,-7 3,-4 4,-8 4,-13 0,-6 -2,-11 -5,-14 -3,-4 -7,-6 -13,-7 -3,-1 -11,-1 -26,-1l-27 0 0 44zm146 8l0 -33 33 0 0 33 -33 0zm0 92l0 -33 33 0 0 33 -33 0zm218 0l-33 0 0 -125c-12,11 -26,20 -42,25l0 -30c8,-3 18,-8 28,-16 10,-8 17,-17 21,-28l26 0 0 174zm79 -94c-9,-3 -15,-8 -19,-14 -4,-7 -6,-14 -6,-21 0,-13 5,-24 14,-32 9,-9 21,-13 38,-13 16,0 29,4 38,13 9,8 14,19 14,32 0,8 -2,15 -7,21 -4,6 -10,11 -17,14 9,4 17,10 22,17 5,8 7,16 7,26 0,16 -5,29 -15,39 -10,10 -24,15 -41,15 -15,0 -28,-4 -39,-12 -12,-10 -18,-23 -18,-41 0,-9 2,-17 7,-25 4,-8 12,-14 22,-19zm7 -33c0,7 1,12 5,16 4,3 9,5 15,5 6,0 11,-2 15,-5 4,-4 6,-9 6,-16 0,-6 -2,-11 -6,-15 -4,-4 -9,-6 -15,-6 -6,0 -11,2 -15,6 -4,4 -5,9 -5,15zm-4 74c0,10 3,17 7,22 5,5 11,8 18,8 7,0 12,-3 17,-8 4,-5 6,-12 6,-21 0,-8 -2,-15 -6,-20 -5,-5 -11,-7 -18,-7 -8,0 -14,2 -18,8 -4,6 -6,12 -6,18zm104 13l32 -4c0,7 3,12 6,15 3,3 7,5 13,5 7,0 12,-4 17,-10 5,-6 8,-19 9,-39 -8,9 -19,14 -31,14 -14,0 -25,-5 -35,-15 -10,-11 -15,-25 -15,-41 0,-18 5,-32 16,-43 10,-11 23,-16 39,-16 18,0 32,7 44,20 11,14 16,36 16,68 0,31 -5,54 -17,68 -12,14 -27,21 -46,21 -13,0 -24,-3 -32,-11 -9,-7 -14,-18 -16,-32zm74 -73c0,-10 -2,-19 -7,-25 -5,-5 -11,-8 -17,-8 -6,0 -11,2 -15,7 -4,5 -6,13 -6,24 0,11 2,19 6,24 5,5 10,8 17,8 6,0 11,-3 16,-8 4,-5 6,-12 6,-22zm-578 319l0 -29 75 0 0 69c-8,7 -18,13 -32,19 -14,5 -28,8 -42,8 -18,0 -34,-4 -47,-11 -14,-8 -24,-19 -31,-33 -6,-14 -10,-30 -10,-46 0,-18 4,-34 11,-48 8,-14 19,-25 34,-33 11,-5 24,-8 41,-8 21,0 38,4 50,13 12,9 20,22 24,38l-35 6c-3,-8 -7,-15 -14,-20 -7,-5 -15,-7 -25,-7 -15,0 -27,5 -36,14 -9,10 -14,24 -14,43 0,21 5,36 14,47 9,10 21,15 36,15 7,0 14,-1 22,-4 7,-3 13,-7 18,-11l0 -22 -39 0zm113 -28l0 -33 33 0 0 33 -33 0zm0 92l0 -33 33 0 0 33 -33 0zm219 0l-33 0 0 -125c-12,11 -27,19 -43,25l0 -30c9,-3 18,-9 28,-16 10,-8 17,-18 21,-28l27 0 0 174zm51 -40l32 -4c1,7 3,12 6,15 3,3 7,4 13,4 7,0 12,-3 17,-9 5,-6 8,-19 9,-39 -8,9 -18,14 -31,14 -14,0 -25,-5 -35,-16 -10,-10 -15,-24 -15,-41 0,-17 5,-31 16,-42 10,-11 23,-16 39,-16 18,0 32,7 44,20 11,14 17,36 17,67 0,32 -6,55 -18,69 -12,14 -27,21 -46,21 -13,0 -24,-4 -32,-11 -9,-7 -14,-18 -16,-32zm74 -73c0,-11 -2,-19 -7,-25 -5,-6 -11,-9 -17,-9 -6,0 -11,3 -15,8 -4,5 -6,12 -6,23 0,12 2,20 6,25 5,5 10,8 17,8 6,0 11,-3 16,-8 4,-5 6,-12 6,-22zm144 113l-33 0 0 -125c-13,11 -27,19 -43,25l0 -30c8,-3 18,-9 28,-16 10,-8 17,-18 21,-28l27 0 0 174zm-682 97l69 0c14,0 24,0 31,1 7,2 13,4 18,8 5,3 10,8 13,14 4,6 6,13 6,20 0,8 -3,16 -7,22 -4,7 -10,12 -18,16 11,3 19,8 25,15 5,8 8,16 8,26 0,8 -2,16 -5,23 -4,8 -9,14 -15,18 -7,5 -15,8 -24,9 -6,0 -20,1 -42,1l-59 0 0 -173zm35 29l0 39 23 0c14,0 22,0 25,0 6,-1 11,-3 14,-6 4,-4 6,-8 6,-14 0,-5 -2,-10 -5,-13 -3,-3 -7,-5 -13,-6 -3,0 -13,0 -30,0l-20 0zm0 68l0 46 33 0c12,0 20,0 24,-1 5,-1 9,-3 12,-6 3,-4 5,-9 5,-15 0,-5 -1,-10 -4,-13 -2,-4 -6,-7 -11,-8 -4,-2 -15,-3 -31,-3l-28 0zm146 -17l0 -33 33 0 0 33 -33 0zm0 93l0 -33 33 0 0 33 -33 0zm218 0l-33 0 0 -125c-12,11 -26,19 -42,25l0 -30c8,-3 18,-9 28,-17 10,-7 17,-17 21,-27l26 0 0 174zm51 -40l32 -4c1,7 3,11 6,15 4,3 8,4 13,4 7,0 13,-3 18,-9 4,-7 7,-20 9,-39 -9,9 -19,14 -31,14 -14,0 -26,-5 -36,-16 -9,-10 -14,-24 -14,-41 0,-17 5,-31 15,-42 11,-11 24,-16 40,-16 18,0 32,7 43,20 11,14 17,36 17,67 0,32 -6,55 -17,69 -12,14 -27,21 -46,21 -14,0 -24,-4 -33,-11 -8,-7 -13,-18 -16,-32zm75 -73c0,-11 -3,-19 -8,-25 -4,-6 -10,-9 -16,-9 -7,0 -12,3 -16,8 -4,4 -6,12 -6,23 0,11 2,20 7,25 4,5 10,8 16,8 7,0 12,-3 16,-8 5,-5 7,-12 7,-22zm57 67l33 -4c1,8 3,14 8,19 4,4 10,6 16,6 7,0 12,-2 17,-7 5,-6 7,-13 7,-22 0,-8 -2,-15 -7,-19 -4,-5 -10,-8 -16,-8 -4,0 -9,1 -15,3l4 -27c9,0 15,-2 20,-6 5,-4 7,-10 7,-17 0,-5 -2,-10 -5,-13 -4,-4 -8,-6 -14,-6 -6,0 -10,2 -14,6 -4,4 -7,10 -8,18l-30 -6c2,-10 5,-19 9,-25 5,-6 11,-11 18,-15 8,-3 17,-5 26,-5 16,0 29,5 39,15 8,9 12,19 12,29 0,16 -8,28 -25,37 10,2 18,7 24,14 6,8 9,16 9,27 0,15 -5,28 -16,39 -12,11 -25,16 -42,16 -15,0 -28,-5 -39,-14 -10,-9 -16,-21 -18,-35z"/>
  <path class="fil0" d="M5297 7729l43 0c29,0 45,25 53,54l23 87c46,8 90,20 132,35l64 -64c21,-20 47,-34 73,-19l161 93c25,14 27,44 19,73l-23 88c34,29 66,62 96,96l88 -24c28,-8 58,-6 72,19l93 162c15,25 2,52 -19,72l-64 64c15,43 27,87 35,132l88 23c28,8 53,24 53,53l0 187c0,29 -25,45 -53,53l-88 23c-8,45 -20,90 -35,132l64 64c21,20 34,47 19,72l-93 162c-14,25 -44,27 -72,19l-89 -24c-29,35 -61,67 -96,96l24 88c8,29 6,59 -19,73l-161 93c-26,15 -52,1 -73,-19l-64 -64c-43,15 -87,27 -132,35l-23 87c-7,29 -24,54 -53,54l-186 0c-30,0 -46,-25 -54,-54l-23 -87c-45,-8 -89,-20 -132,-36l-64 65c-20,21 -47,34 -72,19l-161 -93c-26,-14 -28,-44 -20,-73l24 -88c-35,-29 -67,-62 -96,-96l-88 24c-28,8 -58,6 -73,-19l-93 -162c-15,-25 -1,-52 19,-72l65 -64c-16,-43 -28,-87 -36,-132l-87 -23c-29,-8 -53,-24 -53,-53l0 -43c51,28 109,43 171,43l374 0c44,231 248,407 492,407l0 0c275,0 500,-225 500,-500l0 0c0,-244 -175,-448 -406,-492l0 -375c0,-61 -16,-120 -44,-171zm273 1038l0 0c0,-146 -97,-269 -229,-310l0 43c0,198 -162,360 -361,360l-43 0c41,133 165,230 310,230l0 0c178,0 323,-146 323,-323zm-383 -267l0 -600c0,-113 -93,-206 -207,-206l-224 0 0 289c0,162 -131,293 -293,293l-289 0 0 224c0,113 93,206 207,206l599 0c114,0 207,-93 207,-206zm-585 -517l0 -404c0,-77 -62,-140 -139,-140l-404 0c-77,0 -139,63 -139,140l0 404c0,77 62,139 139,139l404 0c77,0 139,-62 139,-139zm-2052 2810c261,346 391,539 411,564 18,24 35,30 79,30 61,0 69,-20 69,-84l0 -551c0,-38 0,-60 25,-75 19,-11 42,-12 42,-40 0,-26 -15,-40 -42,-40l-156 0c-31,0 -48,13 -48,37 0,32 22,32 51,49 15,8 21,29 21,60l0 370c-129,-194 -239,-343 -327,-450 -35,-43 -48,-66 -101,-66l-168 0c-26,0 -39,11 -39,34 0,34 22,32 49,44 25,11 27,24 27,56l0 480c0,45 0,69 -24,89 -14,12 -57,5 -57,44 0,24 13,34 43,34l178 0c32,0 44,-7 44,-34 0,-30 -23,-29 -47,-39 -29,-12 -30,-29 -30,-69l0 -443zm1137 521l0 30c0,22 12,34 37,34l119 0c35,0 50,-8 50,-28 0,-16 -12,-23 -33,-34 -21,-12 -28,-18 -28,-64l0 -340c0,-32 -17,-45 -57,-45 -101,0 -169,26 -169,54 0,17 15,23 33,33 8,5 12,22 12,50l0 220c0,52 -29,82 -75,82 -62,0 -76,-33 -76,-110l0 -284c0,-32 -19,-45 -59,-45 -104,0 -173,29 -173,53 0,26 32,32 40,43 8,10 11,28 11,56l0 187c0,126 53,187 181,187 79,0 143,-27 187,-79zm552 -207c31,-22 57,-44 77,-63 122,127 172,229 172,246 0,16 -39,18 -39,53 0,20 20,35 52,35l204 0c44,0 66,-11 66,-39 0,-26 -14,-30 -32,-40 -29,-17 -31,-28 -37,-40 -84,-154 -170,-268 -255,-344 113,-112 169,-190 193,-209 34,-27 77,-27 77,-65 0,-30 -23,-44 -70,-44l-145 0c-38,0 -56,14 -56,41 0,14 5,24 18,32 13,7 31,9 31,29 0,19 -80,124 -256,296l0 -246c0,-30 1,-48 19,-60 15,-11 38,-16 38,-49 0,-31 -21,-43 -63,-43l-203 0c-35,0 -55,19 -55,42 0,32 16,37 36,46 26,12 31,24 31,64l0 509c0,26 -7,31 -29,44 -21,12 -29,21 -29,42 0,24 17,34 53,34l202 0c41,0 62,-9 62,-37 0,-29 -18,-33 -38,-43 -23,-12 -24,-25 -24,-64l0 -127zm781 6l0 -15c0,-102 45,-162 105,-162 36,0 58,24 58,63 0,57 -57,104 -163,114zm5 79c216,-17 323,-74 323,-179 0,-83 -83,-149 -220,-149 -177,0 -290,107 -290,269 0,160 104,260 272,260 153,0 253,-82 253,-134 0,-18 -13,-31 -28,-31 -25,0 -38,19 -60,36 -39,30 -81,46 -124,46 -68,0 -118,-45 -126,-118zm634 -79l0 -15c0,-102 45,-162 105,-162 35,0 58,24 58,63 0,57 -57,104 -163,114zm5 79c216,-17 323,-74 323,-179 0,-83 -84,-149 -220,-149 -178,0 -290,107 -290,269 0,160 104,260 272,260 153,0 253,-82 253,-134 0,-18 -13,-31 -28,-31 -25,0 -38,19 -60,36 -39,30 -81,46 -124,46 -69,0 -118,-45 -126,-118zm641 -249l0 -32c0,-32 -9,-45 -39,-45 -43,0 -103,14 -146,36 -15,8 -23,17 -23,30 0,25 21,24 37,33 20,12 22,33 22,66l0 438c0,22 -1,36 -11,44 -19,14 -39,18 -39,41 0,19 13,30 31,30l201 0c37,0 50,-6 50,-31 0,-20 -14,-27 -35,-40 -20,-12 -21,-21 -21,-50l0 -369c0,-99 17,-148 79,-148 60,0 101,60 101,171 0,118 -39,185 -101,185 -8,0 -16,-2 -26,-2 -18,0 -36,16 -36,32 0,33 37,55 105,55 143,0 242,-101 242,-259 0,-157 -94,-262 -232,-262 -63,0 -118,26 -159,77zm696 170l0 -15c0,-102 46,-162 105,-162 36,0 59,24 59,63 0,57 -58,104 -164,114zm6 79c215,-17 322,-74 322,-179 0,-83 -83,-149 -219,-149 -178,0 -291,107 -291,269 0,160 104,260 272,260 154,0 253,-82 253,-134 0,-18 -13,-31 -28,-31 -25,0 -38,19 -59,36 -39,30 -81,46 -125,46 -68,0 -118,-45 -125,-118zm470 186l223 0c28,0 42,-10 42,-30 0,-23 -16,-27 -46,-38 -13,-6 -17,-18 -17,-38l0 -167c0,-78 16,-118 32,-118 13,0 32,17 61,17 49,0 76,-26 76,-69 0,-44 -32,-73 -81,-73 -56,0 -98,33 -130,99 -1,-74 -13,-101 -63,-101 -77,0 -145,47 -145,72 0,24 29,27 50,45 18,18 19,33 19,55l0 237c0,23 -3,36 -12,41 -23,11 -45,13 -45,41 0,17 12,27 36,27z"/>
  <path class="fil0" d="M13144 8461l43 0c29,0 45,25 53,54l23 87c46,8 90,20 132,35l64 -64c21,-20 47,-34 73,-19l161 93c25,15 27,44 19,73l-23 88c34,30 66,62 96,96l88 -24c28,-8 58,-6 72,19l93 162c15,25 2,52 -19,72l-64 64c15,43 27,87 35,132l88 23c28,8 53,24 53,53l0 187c0,29 -25,45 -53,53l-88 23c-8,45 -20,90 -35,132l64 64c21,20 34,47 19,72l-93 162c-14,25 -44,27 -72,19l-89 -24c-29,35 -61,67 -96,96l24 88c8,29 6,59 -19,73l-161 93c-26,15 -52,1 -73,-19l-64 -64c-43,15 -87,27 -132,35l-23 87c-7,29 -24,54 -53,54l-186 0c-30,0 -46,-25 -54,-54l-23 -87c-45,-8 -89,-20 -132,-35l-64 64c-20,21 -47,34 -72,19l-161 -93c-26,-14 -28,-44 -20,-72l24 -89c-35,-29 -67,-62 -96,-96l-88 24c-28,8 -58,6 -73,-19l-93 -162c-15,-25 -1,-52 19,-72l65 -64c-16,-43 -27,-87 -36,-132l-87 -23c-29,-8 -53,-24 -53,-53l0 -43c51,28 109,43 171,43l374 0c44,231 248,407 492,407l0 0c275,0 500,-225 500,-500l0 0c0,-244 -175,-448 -406,-492l0 -375c0,-61 -16,-120 -44,-171zm273 1038l0 0c0,-146 -97,-269 -229,-310l0 43c0,198 -162,360 -361,360l-43 0c41,133 165,230 310,230l0 0c178,0 323,-146 323,-323zm-383 -267l0 -600c0,-113 -93,-206 -207,-206l-223 0 0 289c0,162 -132,293 -294,293l-289 0 0 224c0,113 93,206 207,206l599 0c114,0 207,-93 207,-206zm-584 -517l0 -404c0,-77 -63,-140 -140,-140l-404 0c-77,0 -139,63 -139,140l0 404c0,77 62,139 139,139l404 0c77,0 140,-62 140,-139zm2666 442c261,346 390,539 410,564 18,24 36,30 79,30 62,0 69,-20 69,-84l0 -551c0,-38 0,-60 25,-75 20,-11 42,-12 42,-40 0,-26 -15,-40 -42,-40l-156 0c-31,0 -47,13 -47,37 0,32 21,32 50,48 16,9 21,30 21,61l0 370c-129,-194 -239,-343 -327,-450 -35,-43 -48,-66 -101,-66l-167 0c-26,0 -39,11 -39,34 0,34 21,32 48,44 25,11 27,24 27,56l0 480c0,44 0,69 -23,89 -14,12 -58,5 -58,44 0,24 13,34 44,34l177 0c33,0 44,-7 44,-34 0,-30 -22,-29 -47,-39 -28,-12 -29,-29 -29,-69l0 -443zm1136 521l0 30c0,22 12,34 37,34l119 0c35,0 50,-8 50,-29 0,-15 -12,-22 -32,-33 -22,-12 -29,-18 -29,-64l0 -340c0,-32 -17,-45 -57,-45 -101,0 -169,26 -169,54 0,17 15,23 34,33 7,5 12,22 12,50l0 220c0,52 -30,82 -76,82 -62,0 -76,-33 -76,-110l0 -284c0,-32 -18,-45 -58,-45 -104,0 -174,29 -174,53 0,26 32,32 41,43 7,10 10,28 10,56l0 187c0,126 53,187 181,187 79,0 143,-27 187,-79zm553 -207c30,-22 56,-44 76,-63 123,127 173,229 173,246 0,16 -39,17 -39,53 0,19 19,35 52,35l203 0c44,0 66,-11 66,-39 0,-26 -14,-30 -31,-40 -30,-18 -32,-28 -38,-40 -84,-154 -170,-268 -255,-344 113,-113 169,-190 193,-209 35,-27 77,-27 77,-65 0,-30 -23,-44 -69,-44l-145 0c-38,0 -57,14 -57,41 0,14 6,24 19,31 13,8 30,10 30,30 0,19 -80,124 -255,296l0 -246c0,-30 1,-48 18,-60 15,-11 38,-16 38,-49 0,-31 -21,-43 -63,-43l-202 0c-36,0 -56,19 -56,42 0,32 17,37 36,46 26,12 32,23 32,64l0 509c0,26 -8,31 -30,44 -20,12 -29,21 -29,42 0,24 17,34 53,34l203 0c41,0 61,-9 61,-37 0,-29 -18,-34 -38,-43 -22,-12 -23,-25 -23,-64l0 -127zm780 5l0 -14c0,-102 46,-162 105,-162 36,0 59,24 59,63 0,57 -58,104 -164,113zm6 79c215,-16 322,-73 322,-178 0,-84 -83,-150 -220,-150 -177,0 -290,108 -290,270 0,160 104,260 272,260 154,0 253,-82 253,-134 0,-18 -13,-31 -28,-31 -25,0 -38,19 -59,36 -39,30 -82,45 -125,45 -68,0 -118,-44 -125,-118zm633 -79l0 -14c0,-102 45,-162 105,-162 36,0 58,24 58,63 0,57 -57,104 -163,113zm5 79c216,-16 323,-73 323,-178 0,-84 -83,-150 -220,-150 -177,0 -290,108 -290,270 0,160 104,260 272,260 154,0 253,-82 253,-134 0,-18 -13,-31 -28,-31 -25,0 -38,19 -60,36 -39,30 -81,45 -124,45 -68,0 -118,-44 -126,-118zm641 -249l0 -31c0,-32 -8,-45 -39,-45 -43,0 -102,14 -146,36 -15,8 -22,17 -22,30 0,25 20,23 36,33 20,12 22,33 22,66l0 438c0,22 -1,36 -11,44 -18,14 -39,18 -39,41 0,18 13,30 32,30l200 0c38,0 51,-6 51,-31 0,-21 -14,-27 -36,-40 -19,-12 -21,-21 -21,-50l0 -369c0,-100 18,-148 79,-148 60,0 101,60 101,171 0,118 -39,185 -101,185 -8,0 -16,-2 -26,-2 -18,0 -35,16 -35,32 0,33 37,55 105,55 143,0 241,-101 241,-259 0,-157 -94,-262 -232,-262 -62,0 -117,26 -159,76zm697 170l0 -14c0,-102 45,-162 105,-162 35,0 58,24 58,63 0,57 -57,104 -163,113zm5 79c215,-16 323,-73 323,-178 0,-84 -84,-150 -220,-150 -178,0 -290,108 -290,270 0,160 104,260 271,260 154,0 254,-82 254,-134 0,-18 -13,-31 -28,-31 -25,0 -38,19 -60,36 -39,30 -81,45 -124,45 -69,0 -118,-44 -126,-118zm470 187l223 0c28,0 42,-10 42,-30 0,-23 -16,-27 -45,-39 -13,-5 -18,-17 -18,-37l0 -167c0,-78 17,-118 33,-118 13,0 31,17 60,17 49,0 76,-26 76,-69 0,-44 -31,-73 -81,-73 -55,0 -97,33 -130,99 -1,-74 -13,-101 -63,-101 -77,0 -145,47 -145,72 0,23 29,27 50,45 18,17 20,33 20,55l0 237c0,23 -4,36 -12,40 -24,12 -46,13 -46,42 0,17 12,27 36,27z"/>
  <path class="fil0" d="M18569 20987l31 0c21,0 33,18 39,39l17 63c33,6 65,15 96,26l46 -47c15,-15 35,-24 53,-14l118 68c18,11 19,32 14,53l-17 64c25,22 48,45 69,70l65 -17c20,-6 42,-5 52,14l68 117c11,19 1,38 -14,53l-47 47c11,31 20,63 26,96l64 17c20,5 39,17 39,38l0 136c0,21 -19,33 -39,39l-64 17c-6,33 -15,65 -26,96l47 46c15,15 25,35 14,53l-68 118c-10,18 -32,19 -52,14l-65 -18c-21,25 -45,49 -70,70l18 64c5,21 4,43 -14,53l-118 68c-18,11 -38,1 -53,-14l-46 -47c-31,11 -64,20 -97,26l-16 64c-6,20 -18,38 -39,38l-135 0c-22,0 -34,-18 -39,-38l-17 -64c-33,-6 -65,-15 -97,-26l-46 47c-15,15 -34,25 -53,14l-117 -68c-18,-10 -20,-32 -14,-53l17 -64c-25,-21 -48,-45 -70,-70l-64 18c-21,5 -42,4 -53,-14l-68 -118c-10,-18 -1,-38 15,-53l46 -46c-11,-31 -20,-64 -26,-97l-63 -16c-21,-6 -39,-18 -39,-39l0 -31c37,20 80,32 125,32l272 0c32,168 181,296 358,296l0 0c201,0 365,-164 365,-365l0 0c0,-177 -128,-326 -296,-358l0 -272c0,-46 -12,-88 -32,-125zm199 755l0 0c0,-106 -71,-196 -167,-225l0 31c0,145 -118,263 -263,263l-31 0c30,96 120,167 225,167l0 0c130,0 236,-106 236,-236zm-279 -194l0 -436c0,-83 -68,-151 -151,-151l-163 0 0 211c0,117 -96,213 -213,213l-211 0 0 163c0,83 68,150 151,150l436 0c83,0 151,-67 151,-150zm-426 -376l0 -295c0,-56 -45,-101 -101,-101l-295 0c-55,0 -101,45 -101,101l0 295c0,55 46,101 101,101l295 0c56,0 101,-46 101,-101zm1306 -802l-1885 0c-178,0 -324,146 -324,324l0 1885c0,178 146,324 324,324l1885 0c179,0 324,-146 324,-324l0 -1885c0,-178 -145,-324 -324,-324z"/>
  <path class="fil0" d="M15089 20883l35 0c24,0 37,21 44,44l19 72c37,7 74,17 109,30l52 -53c17,-18 40,-29 60,-17l134 77c20,12 22,37 16,60l-20 73c28,25 55,51 79,80l73 -20c23,-7 48,-5 60,16l77 133c12,21 1,43 -16,60l-53 53c12,35 22,72 29,109l72 19c24,6 44,20 44,44l0 154c0,24 -20,37 -44,43l-72 20c-7,37 -17,74 -29,109l53 52c17,17 28,39 16,60l-77 133c-12,21 -37,23 -60,17l-73 -20c-24,28 -51,55 -79,79l20 73c6,23 4,48 -16,60l-134 77c-20,12 -42,1 -60,-16l-52 -53c-36,12 -72,22 -110,29l-18 72c-7,24 -20,44 -44,44l-154 0c-24,0 -38,-20 -44,-44l-19 -72c-38,-7 -74,-17 -110,-29l-52 53c-17,17 -39,28 -60,16l-133 -77c-21,-12 -22,-37 -16,-60l19 -73c-28,-24 -54,-51 -79,-79l-73 20c-23,6 -47,4 -60,-17l-76 -133c-13,-21 -1,-43 16,-60l53 -52c-13,-36 -23,-72 -30,-110l-72 -19c-23,-6 -44,-19 -44,-43l0 -36c42,23 90,36 141,36l310 0c36,191 205,336 406,336l0 0c227,0 413,-186 413,-413l0 0c0,-201 -145,-370 -336,-406l0 -310c0,-51 -13,-99 -35,-141zm225 857l0 0c0,-120 -80,-222 -190,-256l0 35c0,164 -133,298 -298,298l-35 0c34,110 136,190 256,190l0 0c147,0 267,-120 267,-267zm-317 -221l0 -495c0,-93 -77,-170 -171,-170l-184 0 0 239c0,133 -109,242 -242,242l-239 0 0 184c0,94 77,171 170,171l495 0c94,0 171,-77 171,-171zm-482 -426l0 -334c0,-64 -52,-115 -115,-115l-334 0c-64,0 -115,51 -115,115l0 334c0,63 51,115 115,115l334 0c63,0 115,-52 115,-115zm-507 -908l1838 0c284,0 516,232 516,516l0 1838c0,284 -232,516 -516,516l-1838 0c-284,0 -516,-232 -516,-516l0 -1838c0,-284 232,-516 516,-516zm-24 168l1886 0c178,0 324,146 324,324l0 1885c0,179 -146,324 -324,324l-1886 0c-178,0 -324,-145 -324,-324l0 -1885c0,-178 146,-324 324,-324z"/>
 </g>
</svg>
